# Blender v2.79 (sub 0) OBJ File: 'props.blend'
# www.blender.org
mtllib column_v2.mtl
o column_v2_Cube
v 0.870513 0.000000 -0.828950
v 0.870513 2.000000 -0.828950
v 0.870513 0.000000 -1.059369
v 0.870513 2.000000 -1.059369
v 1.100932 0.000000 -0.828950
v 1.100932 2.000000 -0.828950
v 1.100932 0.000000 -1.059369
v 1.100932 2.000000 -1.059369
v 0.915528 0.439717 -0.857200
v 0.904805 1.582057 -0.857200
v 0.912446 1.564563 -1.017435
v 0.907967 0.422407 -1.021914
v 1.072681 1.565932 -1.018033
v 1.072681 0.414246 -1.025479
v 1.072681 1.567191 -0.857200
v 1.072681 0.436577 -0.857200
v 0.870513 1.789930 -0.828950
v 0.870513 1.789930 -1.059369
v 1.100932 1.789930 -1.059369
v 1.100741 1.785940 -0.829140
v 0.870513 0.207295 -1.059369
v 1.100932 0.207295 -1.059369
v 1.100796 0.210133 -0.829085
v 0.870513 0.207295 -0.828950
v 0.834277 1.802696 -0.842952
v 0.834277 1.987234 -0.842952
v 0.834277 1.987234 -1.045366
v 0.834277 1.802696 -1.006459
v 0.900328 1.802696 -1.095604
v 0.884515 1.987234 -1.095604
v 1.086929 1.964701 -1.095604
v 1.086929 1.817873 -1.095604
v 1.137167 1.802696 -1.045366
v 1.137167 1.959749 -1.029157
v 1.137167 1.987234 -0.842952
v 1.136940 1.800560 -0.869724
v 1.066741 1.799459 -0.793059
v 1.086929 1.966469 -0.792714
v 0.884515 1.945327 -0.792714
v 0.910651 1.821445 -0.786785
v 0.850754 0.023870 -0.855483
v 0.850754 0.183425 -0.895561
v 0.850754 0.183425 -1.032835
v 0.850754 0.023870 -0.968455
v 0.897046 0.023870 -1.079127
v 0.897046 0.147167 -1.079127
v 1.074399 0.183425 -1.079127
v 1.055204 0.058189 -1.098953
v 1.120690 0.023870 -1.032835
v 1.120690 0.155523 -1.032835
v 1.120669 0.183693 -0.855484
v 1.120690 0.023870 -0.886563
v 1.043117 0.023870 -0.809191
v 1.074399 0.139424 -0.809191
v 0.897046 0.162216 -0.809191
v 0.897046 0.023870 -0.809191
v 0.925813 0.631392 -0.857200
v 0.930456 0.799520 -0.857200
v 0.898763 0.998612 -0.888147
v 0.928581 1.197705 -0.857200
v 0.922207 1.369960 -0.857200
v 0.907968 1.386261 -1.021913
v 0.898763 1.157522 -1.031118
v 0.898763 0.998612 -1.031118
v 0.898763 0.840167 -1.031118
v 0.901570 0.603640 -1.028312
v 1.072681 1.395894 -1.030329
v 1.072681 1.197705 -1.023263
v 1.037587 0.998612 -1.031118
v 1.072681 0.799520 -1.001739
v 1.072681 0.601175 -1.030465
v 1.072681 1.357354 -0.857200
v 1.072681 1.197705 -0.857200
v 1.072681 0.974112 -0.857200
v 1.072681 0.799520 -0.857200
v 1.072681 0.641481 -0.857200
vt 0.378305 0.784326
vt 0.296479 0.689249
vt 0.372254 0.680233
vt 0.418350 0.115738
vt 0.304442 0.213291
vt 0.315001 0.100039
vt 0.124346 0.202826
vt 0.010667 0.108698
vt 0.116842 0.095971
vt 0.128016 0.700435
vt 0.036011 0.783300
vt 0.041703 0.677075
vt 0.218418 0.093444
vt 0.209716 0.791840
vt 0.211621 0.695680
vt 0.214427 0.203068
vt 0.402514 0.891820
vt 0.294668 0.798004
vt 0.122000 0.789450
vt 0.004942 0.890901
vt 0.106649 0.902295
vt 0.204327 0.906466
vt 0.290317 0.977266
vt 0.231147 0.917924
vt 0.286253 0.916641
vt 0.302545 0.899550
vt 0.304606 0.992750
vt 0.221543 0.982292
vt 0.208536 0.996450
vt 0.185656 0.918896
vt 0.120009 0.976688
vt 0.122737 0.922323
vt 0.194031 0.982459
vt 0.105172 0.999935
vt 0.087595 0.976476
vt 0.028237 0.907684
vt 0.089557 0.916465
vt 0.000065 0.987776
vt 0.015784 0.972452
vt 0.391537 0.967127
vt 0.326830 0.917962
vt 0.382603 0.910175
vt 0.407389 0.985499
vt 0.318350 0.964098
vt 0.286767 0.085317
vt 0.259256 0.017340
vt 0.307533 0.021668
vt 0.322697 0.009018
vt 0.216856 0.000065
vt 0.232024 0.081301
vt 0.203825 0.066254
vt 0.136237 0.029374
vt 0.202336 0.014462
vt 0.130598 0.082475
vt 0.108813 0.000596
vt 0.100158 0.072446
vt 0.030279 0.020175
vt 0.094835 0.015906
vt 0.024026 0.092302
vt 0.000065 0.008081
vt 0.398346 0.028349
vt 0.330678 0.081024
vt 0.336165 0.023897
vt 0.406643 0.080201
vt 0.427545 0.016824
vt 0.213358 0.300483
vt 0.301087 0.400910
vt 0.301882 0.315077
vt 0.282299 0.501480
vt 0.211366 0.420974
vt 0.211608 0.579984
vt 0.210793 0.501149
vt 0.298663 0.601955
vt 0.128306 0.296965
vt 0.122144 0.397852
vt 0.139745 0.501645
vt 0.127504 0.602583
vt 0.038192 0.220452
vt 0.044255 0.322355
vt 0.050550 0.487475
vt 0.048703 0.400755
vt 0.046042 0.597618
vt 0.384949 0.222287
vt 0.376210 0.324731
vt 0.370110 0.490172
vt 0.372607 0.403509
vt 0.370704 0.601019
vn 0.0000 0.0000 1.0000
vn -0.0009 0.1208 0.9927
vn 0.9908 0.1354 -0.0011
vn 1.0000 0.0000 0.0000
vn 0.0000 0.1616 -0.9869
vn -0.0525 0.0264 -0.9983
vn -0.9852 0.1715 0.0000
vn -0.9958 0.0228 0.0883
vn -0.0111 -0.1258 0.9920
vn 0.9919 -0.1274 0.0010
vn -0.0021 -0.1812 -0.9834
vn -0.9819 -0.1876 -0.0263
vn -1.0000 0.0000 0.0000
vn -0.3605 0.0000 0.9328
vn -0.3323 0.9432 0.0000
vn -0.3604 0.0000 -0.9328
vn -0.3323 -0.9432 0.0000
vn 0.0000 0.0000 -1.0000
vn -0.9328 0.0000 -0.3605
vn 0.0000 0.9432 -0.3323
vn 0.9328 0.0000 -0.3605
vn 0.0000 -0.9432 -0.3323
vn 1.0000 -0.0001 0.0013
vn 0.6404 0.0000 -0.7681
vn 0.7432 0.6691 0.0000
vn 0.3601 -0.0012 0.9329
vn 0.3591 -0.9332 -0.0159
vn 0.0392 -0.0068 0.9992
vn 0.9331 -0.0012 0.3595
vn 0.0000 0.7340 0.6792
vn -0.9328 0.0000 0.3605
vn -0.0133 -0.7948 0.6067
vn -0.8020 0.0000 0.5973
vn -0.7703 0.6376 0.0000
vn -0.8020 0.0000 -0.5973
vn -0.7703 -0.6376 0.0000
vn -0.1244 0.0000 -0.9922
vn -0.5973 0.0000 -0.8020
vn 0.0000 0.6376 -0.7703
vn 0.6545 0.0000 -0.7561
vn 0.0000 -0.5625 -0.8268
vn 0.8020 0.0000 -0.5973
vn 0.7960 0.6053 -0.0070
vn 0.7994 0.0009 0.6009
vn 0.7703 -0.6376 0.0000
vn 0.6003 0.0009 0.7998
vn -0.0044 0.3993 0.9168
vn -0.5973 0.0000 0.8020
vn 0.0000 -0.6376 0.7703
vn -0.9982 -0.0335 0.0493
vn -0.9903 0.0273 0.1359
vn -0.9801 -0.1331 0.1475
vn -0.9863 0.0332 0.1614
vn -0.0229 -0.0267 -0.9994
vn -0.0104 0.1433 -0.9896
vn 0.1378 -0.1208 -0.9831
vn 0.0362 0.0387 -0.9986
vn 0.9802 0.0000 -0.1978
vn -0.1906 -0.1228 0.9739
vn 0.0025 0.1235 0.9923
vn 0.9925 0.1212 -0.0161
vn -0.0127 0.1737 -0.9847
vn -0.0043 0.0721 -0.9974
vn -0.9809 0.1930 0.0247
vn -0.9959 -0.0817 -0.0386
vn -0.0015 -0.1349 0.9909
vn 0.9921 -0.1254 -0.0014
vn 0.0000 -0.1829 -0.9831
vn -0.9867 -0.1628 0.0000
vn -0.3604 0.0000 0.9328
vn -0.8323 -0.1144 -0.5424
vn -0.7592 -0.0651 -0.6476
vn 0.0778 0.6989 -0.7109
vn 0.0633 -0.7783 -0.6247
vn 1.0000 -0.0012 0.0002
vn 0.3288 0.0970 -0.9394
vn 0.2804 0.9496 -0.1402
vn 0.7595 -0.0933 0.6438
vn 0.3360 -0.9418 -0.0110
vn -0.0049 0.0468 0.9989
vn 0.7085 -0.0871 0.7003
vn -0.0566 0.5415 0.8388
vn -0.6783 -0.1083 0.7267
vn -0.1258 -0.9621 0.2420
vn -0.9628 0.0658 0.2620
vn -0.9783 -0.0776 -0.1922
vn -0.0330 0.1612 -0.9864
vn -0.0589 0.2881 -0.9558
vn 0.5722 0.0420 -0.8191
vn 0.0529 -0.6710 -0.7396
vn 1.0000 0.0001 0.0001
vn 0.9417 0.3324 -0.0527
vn 0.9515 -0.0586 0.3020
vn 0.2929 -0.0793 0.9528
vn 0.0333 0.2591 0.9653
vn -0.9899 0.0531 0.1316
vn -0.9841 -0.0096 0.1771
vn -0.9823 0.1254 0.1394
vn -0.9959 -0.0369 0.0824
vn -0.0131 -0.0357 -0.9993
vn 0.1643 -0.0098 -0.9864
vn 0.0375 0.0328 -0.9988
vn -0.0489 -0.0356 -0.9982
vn 0.9736 0.1456 -0.1759
vn 0.9848 -0.1736 0.0000
vn -0.1563 0.1274 0.9795
usemtl column_v2_material
s off
f 15/1/1 61/2/1 72/3/1
f 23/4/2 9/5/2 24/6/2
f 14/7/3 23/8/3 22/9/3
f 67/10/4 15/11/4 72/12/4
f 21/13/5 14/7/5 22/9/5
f 11/14/6 67/10/6 62/15/6
f 24/6/7 12/16/7 21/13/7
f 61/2/8 11/14/8 62/15/8
f 20/17/9 10/18/9 15/1/9
f 13/19/10 20/20/10 15/11/10
f 11/14/11 19/21/11 13/19/11
f 10/18/12 18/22/12 11/14/12
f 26/23/13 28/24/13 25/25/13
f 26/23/14 17/26/14 2/27/14
f 27/28/15 2/27/15 4/29/15
f 18/22/16 27/28/16 4/29/16
f 17/26/17 28/24/17 18/22/17
f 29/30/18 31/31/18 32/32/18
f 30/33/19 18/22/19 4/29/19
f 8/34/20 30/33/20 4/29/20
f 19/21/21 31/31/21 8/34/21
f 29/30/22 19/21/22 18/22/22
f 34/35/23 36/36/23 33/37/23
f 34/35/24 19/21/24 8/34/24
f 6/38/25 34/35/25 8/34/25
f 20/20/26 35/39/26 6/38/26
f 19/21/27 36/36/27 20/20/27
f 38/40/28 40/41/28 37/42/28
f 38/40/29 20/17/29 6/43/29
f 2/27/30 38/40/30 6/43/30
f 17/26/31 39/44/31 2/27/31
f 20/17/32 40/41/32 17/26/32
f 42/45/13 44/46/13 41/47/13
f 24/6/33 41/47/33 1/48/33
f 21/13/34 42/45/34 24/6/34
f 3/49/35 43/50/35 21/13/35
f 1/48/36 44/46/36 3/49/36
f 46/51/37 48/52/37 45/53/37
f 46/51/38 3/49/38 21/13/38
f 47/54/39 21/13/39 22/9/39
f 48/52/40 22/9/40 7/55/40
f 3/49/41 48/52/41 7/55/41
f 50/56/4 52/57/4 49/58/4
f 50/56/42 7/55/42 22/9/42
f 51/59/43 22/9/43 23/8/43
f 5/60/44 51/59/44 23/8/44
f 7/55/45 52/57/45 5/60/45
f 53/61/1 55/62/1 56/63/1
f 54/64/46 5/65/46 23/4/46
f 55/62/47 23/4/47 24/6/47
f 1/48/48 55/62/48 24/6/48
f 53/61/49 1/48/49 5/65/49
f 9/5/50 66/66/50 12/16/50
f 58/67/51 66/66/51 57/68/51
f 59/69/52 65/70/52 58/67/52
f 59/69/13 63/71/13 64/72/13
f 60/73/53 62/15/53 63/71/53
f 12/16/54 71/74/54 14/7/54
f 66/66/55 70/75/55 71/74/55
f 65/70/56 69/76/56 70/75/56
f 63/71/18 69/76/18 64/72/18
f 62/15/57 68/77/57 63/71/57
f 71/74/4 16/78/4 14/7/4
f 70/75/4 76/79/4 71/74/4
f 70/75/4 74/80/4 75/81/4
f 69/76/58 73/82/58 74/80/58
f 68/77/4 72/12/4 73/82/4
f 16/83/1 57/68/1 9/5/1
f 76/84/1 58/67/1 57/68/1
f 74/85/1 58/67/1 75/86/1
f 74/85/59 60/73/59 59/69/59
f 72/3/1 60/73/1 73/87/1
f 15/1/1 10/18/1 61/2/1
f 23/4/60 16/83/60 9/5/60
f 14/7/61 16/78/61 23/8/61
f 67/10/4 13/19/4 15/11/4
f 21/13/62 12/16/62 14/7/62
f 11/14/63 13/19/63 67/10/63
f 24/6/64 9/5/64 12/16/64
f 61/2/65 10/18/65 11/14/65
f 20/17/66 17/26/66 10/18/66
f 13/19/67 19/21/67 20/20/67
f 11/14/68 18/22/68 19/21/68
f 10/18/69 17/26/69 18/22/69
f 26/23/13 27/28/13 28/24/13
f 26/23/70 25/25/70 17/26/70
f 27/28/15 26/23/15 2/27/15
f 18/22/71 28/24/71 27/28/71
f 17/26/17 25/25/17 28/24/17
f 29/30/18 30/33/18 31/31/18
f 30/33/72 29/30/72 18/22/72
f 8/34/73 31/31/73 30/33/73
f 19/21/21 32/32/21 31/31/21
f 29/30/74 32/32/74 19/21/74
f 34/35/75 35/39/75 36/36/75
f 34/35/76 33/37/76 19/21/76
f 6/38/77 35/39/77 34/35/77
f 20/20/78 36/36/78 35/39/78
f 19/21/79 33/37/79 36/36/79
f 38/40/80 39/44/80 40/41/80
f 38/40/81 37/42/81 20/17/81
f 2/27/82 39/44/82 38/40/82
f 17/26/83 40/41/83 39/44/83
f 20/17/84 37/42/84 40/41/84
f 42/45/13 43/50/13 44/46/13
f 24/6/85 42/45/85 41/47/85
f 21/13/34 43/50/34 42/45/34
f 3/49/86 44/46/86 43/50/86
f 1/48/36 41/47/36 44/46/36
f 46/51/87 47/54/87 48/52/87
f 46/51/38 45/53/38 3/49/38
f 47/54/88 46/51/88 21/13/88
f 48/52/89 47/54/89 22/9/89
f 3/49/90 45/53/90 48/52/90
f 50/56/91 51/59/91 52/57/91
f 50/56/42 49/58/42 7/55/42
f 51/59/92 50/56/92 22/9/92
f 5/60/93 52/57/93 51/59/93
f 7/55/45 49/58/45 52/57/45
f 53/61/1 54/64/1 55/62/1
f 54/64/94 53/61/94 5/65/94
f 55/62/95 54/64/95 23/4/95
f 1/48/48 56/63/48 55/62/48
f 53/61/49 56/63/49 1/48/49
f 9/5/96 57/68/96 66/66/96
f 58/67/97 65/70/97 66/66/97
f 59/69/13 64/72/13 65/70/13
f 59/69/98 60/73/98 63/71/98
f 60/73/99 61/2/99 62/15/99
f 12/16/100 66/66/100 71/74/100
f 66/66/101 65/70/101 70/75/101
f 65/70/18 64/72/18 69/76/18
f 63/71/102 68/77/102 69/76/102
f 62/15/103 67/10/103 68/77/103
f 71/74/4 76/79/4 16/78/4
f 70/75/4 75/81/4 76/79/4
f 70/75/104 69/76/104 74/80/104
f 69/76/105 68/77/105 73/82/105
f 68/77/4 67/10/4 72/12/4
f 16/83/1 76/84/1 57/68/1
f 76/84/1 75/86/1 58/67/1
f 74/85/106 59/69/106 58/67/106
f 74/85/1 73/87/1 60/73/1
f 72/3/1 61/2/1 60/73/1
