# Blender v2.79 (sub 0) OBJ File: 'props.blend'
# www.blender.org
mtllib column_v2.mtl
o column_v2_Cube
v 0.870513 0.000000 -0.828950
v 0.870513 2.000000 -0.828950
v 0.870513 0.000000 -1.059369
v 0.870513 2.000000 -1.059369
v 1.100932 0.000000 -0.828950
v 1.100932 2.000000 -0.828950
v 1.100932 0.000000 -1.059369
v 1.100932 2.000000 -1.059369
v 0.915528 0.439717 -0.857200
v 0.904805 1.582057 -0.857200
v 0.912446 1.564563 -1.017435
v 0.907967 0.422407 -1.021914
v 1.072681 1.565932 -1.018033
v 1.072681 0.414246 -1.025479
v 1.072681 1.567191 -0.857200
v 1.072681 0.436577 -0.857200
v 0.870513 1.789930 -0.828950
v 0.870513 1.789930 -1.059369
v 1.100932 1.789930 -1.059369
v 1.100741 1.785940 -0.829140
v 0.870513 0.207295 -1.059369
v 1.100932 0.207295 -1.059369
v 1.100796 0.210133 -0.829085
v 0.870513 0.207295 -0.828950
v 0.834277 1.802696 -0.842952
v 0.834277 1.987234 -0.842952
v 0.834277 1.987234 -1.045366
v 0.834277 1.802696 -1.006459
v 0.900328 1.802696 -1.095604
v 0.884515 1.987234 -1.095604
v 1.086929 1.964701 -1.095604
v 1.086929 1.817873 -1.095604
v 1.137167 1.802696 -1.045366
v 1.137167 1.959749 -1.029157
v 1.137167 1.987234 -0.842952
v 1.136940 1.800560 -0.869724
v 1.066741 1.799459 -0.793059
v 1.086929 1.966469 -0.792714
v 0.884515 1.945327 -0.792714
v 0.910651 1.821445 -0.786785
v 0.850754 0.023870 -0.855483
v 0.850754 0.183425 -0.895561
v 0.850754 0.183425 -1.032835
v 0.850754 0.023870 -0.968455
v 0.897046 0.023870 -1.079127
v 0.897046 0.147167 -1.079127
v 1.074399 0.183425 -1.079127
v 1.055204 0.058189 -1.098953
v 1.120690 0.023870 -1.032835
v 1.120690 0.155523 -1.032835
v 1.120669 0.183693 -0.855484
v 1.120690 0.023870 -0.886563
v 1.043117 0.023870 -0.809191
v 1.074399 0.139424 -0.809191
v 0.897046 0.162216 -0.809191
v 0.897046 0.023870 -0.809191
v 0.925813 0.631392 -0.857200
v 0.930456 0.799520 -0.857200
v 0.898763 0.998612 -0.888147
v 0.928581 1.197705 -0.857200
v 0.922207 1.369960 -0.857200
v 0.907968 1.386261 -1.021913
v 0.898763 1.157522 -1.031118
v 0.898763 0.998612 -1.031118
v 0.898763 0.840167 -1.031118
v 0.901570 0.603640 -1.028312
v 1.072681 1.395894 -1.030329
v 1.072681 1.197705 -1.023263
v 1.037587 0.998612 -1.031118
v 1.072681 0.799520 -1.001739
v 1.072681 0.601175 -1.030465
v 1.072681 1.357354 -0.857200
v 1.072681 1.197705 -0.857200
v 1.072681 0.974112 -0.857200
v 1.072681 0.799520 -0.857200
v 1.072681 0.641481 -0.857200
vn 0.0000 0.0000 1.0000
vn -0.0009 0.1208 0.9927
vn 0.9908 0.1354 -0.0011
vn 1.0000 0.0000 0.0000
vn 0.0000 0.1616 -0.9869
vn -0.0525 0.0264 -0.9983
vn -0.9852 0.1715 0.0000
vn -0.9958 0.0228 0.0883
vn -0.0111 -0.1258 0.9920
vn 0.9919 -0.1274 0.0010
vn -0.0021 -0.1812 -0.9834
vn -0.9819 -0.1876 -0.0263
vn -1.0000 0.0000 0.0000
vn -0.3605 0.0000 0.9328
vn -0.3323 0.9432 0.0000
vn -0.3604 0.0000 -0.9328
vn -0.3323 -0.9432 0.0000
vn 0.0000 0.0000 -1.0000
vn -0.9328 0.0000 -0.3605
vn 0.0000 0.9432 -0.3323
vn 0.9328 0.0000 -0.3605
vn 0.0000 -0.9432 -0.3323
vn 1.0000 -0.0001 0.0013
vn 0.6404 0.0000 -0.7681
vn 0.7432 0.6691 0.0000
vn 0.3601 -0.0012 0.9329
vn 0.3591 -0.9332 -0.0159
vn 0.0392 -0.0068 0.9992
vn 0.9331 -0.0012 0.3595
vn 0.0000 0.7340 0.6792
vn -0.9328 0.0000 0.3605
vn -0.0133 -0.7948 0.6067
vn -0.8020 0.0000 0.5973
vn -0.7703 0.6376 0.0000
vn -0.8020 0.0000 -0.5973
vn -0.7703 -0.6376 0.0000
vn -0.1244 0.0000 -0.9922
vn -0.5973 0.0000 -0.8020
vn 0.0000 0.6376 -0.7703
vn 0.6545 0.0000 -0.7561
vn 0.0000 -0.5625 -0.8268
vn 0.8020 0.0000 -0.5973
vn 0.7960 0.6053 -0.0070
vn 0.7994 0.0009 0.6009
vn 0.7703 -0.6376 0.0000
vn 0.6003 0.0009 0.7998
vn -0.0044 0.3993 0.9168
vn -0.5973 0.0000 0.8020
vn 0.0000 -0.6376 0.7703
vn -0.9982 -0.0335 0.0493
vn -0.9903 0.0273 0.1359
vn -0.9801 -0.1331 0.1475
vn -0.9863 0.0332 0.1614
vn -0.0229 -0.0267 -0.9994
vn -0.0104 0.1433 -0.9896
vn 0.1378 -0.1208 -0.9831
vn 0.0362 0.0387 -0.9986
vn 0.9802 0.0000 -0.1978
vn -0.1906 -0.1228 0.9739
vn 0.0025 0.1235 0.9923
vn 0.9925 0.1212 -0.0161
vn -0.0127 0.1737 -0.9847
vn -0.0043 0.0721 -0.9974
vn -0.9809 0.1930 0.0247
vn -0.9959 -0.0817 -0.0386
vn -0.0015 -0.1349 0.9909
vn 0.9921 -0.1254 -0.0014
vn 0.0000 -0.1829 -0.9831
vn -0.9867 -0.1628 0.0000
vn -0.3604 0.0000 0.9328
vn -0.8323 -0.1144 -0.5424
vn -0.7592 -0.0651 -0.6476
vn 0.0778 0.6989 -0.7109
vn 0.0633 -0.7783 -0.6247
vn 1.0000 -0.0012 0.0002
vn 0.3288 0.0970 -0.9394
vn 0.2804 0.9496 -0.1402
vn 0.7595 -0.0933 0.6438
vn 0.3360 -0.9418 -0.0110
vn -0.0049 0.0468 0.9989
vn 0.7085 -0.0871 0.7003
vn -0.0566 0.5415 0.8388
vn -0.6783 -0.1083 0.7267
vn -0.1258 -0.9621 0.2420
vn -0.9628 0.0658 0.2620
vn -0.9783 -0.0776 -0.1922
vn -0.0330 0.1612 -0.9864
vn -0.0589 0.2881 -0.9558
vn 0.5722 0.0420 -0.8191
vn 0.0529 -0.6710 -0.7396
vn 1.0000 0.0001 0.0001
vn 0.9417 0.3324 -0.0527
vn 0.9515 -0.0586 0.3020
vn 0.2929 -0.0793 0.9528
vn 0.0333 0.2591 0.9653
vn -0.9899 0.0531 0.1316
vn -0.9841 -0.0096 0.1771
vn -0.9823 0.1254 0.1394
vn -0.9959 -0.0369 0.0824
vn -0.0131 -0.0357 -0.9993
vn 0.1643 -0.0098 -0.9864
vn 0.0375 0.0328 -0.9988
vn -0.0489 -0.0356 -0.9982
vn 0.9736 0.1456 -0.1759
vn 0.9848 -0.1736 0.0000
vn -0.1563 0.1274 0.9795
usemtl None
s off
f 15//1 61//1 72//1
f 23//2 9//2 24//2
f 14//3 23//3 22//3
f 67//4 15//4 72//4
f 21//5 14//5 22//5
f 11//6 67//6 62//6
f 24//7 12//7 21//7
f 61//8 11//8 62//8
f 20//9 10//9 15//9
f 13//10 20//10 15//10
f 11//11 19//11 13//11
f 10//12 18//12 11//12
f 26//13 28//13 25//13
f 26//14 17//14 2//14
f 27//15 2//15 4//15
f 18//16 27//16 4//16
f 17//17 28//17 18//17
f 29//18 31//18 32//18
f 30//19 18//19 4//19
f 8//20 30//20 4//20
f 19//21 31//21 8//21
f 29//22 19//22 18//22
f 34//23 36//23 33//23
f 34//24 19//24 8//24
f 6//25 34//25 8//25
f 20//26 35//26 6//26
f 19//27 36//27 20//27
f 38//28 40//28 37//28
f 38//29 20//29 6//29
f 2//30 38//30 6//30
f 17//31 39//31 2//31
f 20//32 40//32 17//32
f 42//13 44//13 41//13
f 24//33 41//33 1//33
f 21//34 42//34 24//34
f 3//35 43//35 21//35
f 1//36 44//36 3//36
f 46//37 48//37 45//37
f 46//38 3//38 21//38
f 47//39 21//39 22//39
f 48//40 22//40 7//40
f 3//41 48//41 7//41
f 50//4 52//4 49//4
f 50//42 7//42 22//42
f 51//43 22//43 23//43
f 5//44 51//44 23//44
f 7//45 52//45 5//45
f 53//1 55//1 56//1
f 54//46 5//46 23//46
f 55//47 23//47 24//47
f 1//48 55//48 24//48
f 53//49 1//49 5//49
f 9//50 66//50 12//50
f 58//51 66//51 57//51
f 59//52 65//52 58//52
f 59//13 63//13 64//13
f 60//53 62//53 63//53
f 12//54 71//54 14//54
f 66//55 70//55 71//55
f 65//56 69//56 70//56
f 63//18 69//18 64//18
f 62//57 68//57 63//57
f 71//4 16//4 14//4
f 70//4 76//4 71//4
f 70//4 74//4 75//4
f 69//58 73//58 74//58
f 68//4 72//4 73//4
f 16//1 57//1 9//1
f 76//1 58//1 57//1
f 74//1 58//1 75//1
f 74//59 60//59 59//59
f 72//1 60//1 73//1
f 15//1 10//1 61//1
f 23//60 16//60 9//60
f 14//61 16//61 23//61
f 67//4 13//4 15//4
f 21//62 12//62 14//62
f 11//63 13//63 67//63
f 24//64 9//64 12//64
f 61//65 10//65 11//65
f 20//66 17//66 10//66
f 13//67 19//67 20//67
f 11//68 18//68 19//68
f 10//69 17//69 18//69
f 26//13 27//13 28//13
f 26//70 25//70 17//70
f 27//15 26//15 2//15
f 18//71 28//71 27//71
f 17//17 25//17 28//17
f 29//18 30//18 31//18
f 30//72 29//72 18//72
f 8//73 31//73 30//73
f 19//21 32//21 31//21
f 29//74 32//74 19//74
f 34//75 35//75 36//75
f 34//76 33//76 19//76
f 6//77 35//77 34//77
f 20//78 36//78 35//78
f 19//79 33//79 36//79
f 38//80 39//80 40//80
f 38//81 37//81 20//81
f 2//82 39//82 38//82
f 17//83 40//83 39//83
f 20//84 37//84 40//84
f 42//13 43//13 44//13
f 24//85 42//85 41//85
f 21//34 43//34 42//34
f 3//86 44//86 43//86
f 1//36 41//36 44//36
f 46//87 47//87 48//87
f 46//38 45//38 3//38
f 47//88 46//88 21//88
f 48//89 47//89 22//89
f 3//90 45//90 48//90
f 50//91 51//91 52//91
f 50//42 49//42 7//42
f 51//92 50//92 22//92
f 5//93 52//93 51//93
f 7//45 49//45 52//45
f 53//1 54//1 55//1
f 54//94 53//94 5//94
f 55//95 54//95 23//95
f 1//48 56//48 55//48
f 53//49 56//49 1//49
f 9//96 57//96 66//96
f 58//97 65//97 66//97
f 59//13 64//13 65//13
f 59//98 60//98 63//98
f 60//99 61//99 62//99
f 12//100 66//100 71//100
f 66//101 65//101 70//101
f 65//18 64//18 69//18
f 63//102 68//102 69//102
f 62//103 67//103 68//103
f 71//4 76//4 16//4
f 70//4 75//4 76//4
f 70//104 69//104 74//104
f 69//105 68//105 73//105
f 68//4 67//4 72//4
f 16//1 76//1 57//1
f 76//1 75//1 58//1
f 74//106 59//106 58//106
f 74//1 73//1 60//1
f 72//1 61//1 60//1
