# Blender v2.79 (sub 0) OBJ File: 'props.blend'
# www.blender.org
mtllib floor_v2.mtl
o floor_v2_Plane.001
v -1.000000 0.000000 1.000000
v 1.000000 0.000000 1.000000
v -1.000000 0.000000 -1.000000
v 1.000000 0.000000 -1.000000
v -1.000000 0.000000 0.000000
v 0.000000 0.000000 1.000000
v 1.000000 0.000000 0.000000
v 0.000000 0.000000 -1.000000
v -1.000000 0.000000 0.500000
v 0.142366 0.000000 1.000000
v 1.000000 0.000000 -0.500000
v -0.500000 0.000000 -1.000000
v -1.000000 0.000000 -0.500000
v -0.500000 0.000000 1.000000
v 1.000000 0.000000 0.500000
v 0.500000 0.000000 -1.000000
v -1.000000 0.000000 0.907500
v 1.000000 0.000000 0.907500
v 0.000000 0.000000 0.907500
v 0.142366 0.000000 0.907500
v -0.500000 0.000000 0.907500
v 0.900000 0.000000 1.000000
v 0.900000 0.000000 -1.000000
v 0.900000 0.000000 0.000000
v 0.900000 0.000000 0.500000
v 0.900000 0.000000 -0.500000
v 0.900000 0.000000 0.907500
v -0.900000 0.000000 -1.000000
v -0.900000 0.000000 0.000000
v -0.900000 0.000000 1.000000
v -0.900000 0.000000 0.500000
v -0.900000 0.000000 -0.500000
v -0.900000 0.000000 0.907500
v 1.000000 0.000000 -0.907500
v 0.000000 0.000000 -0.907500
v -1.000000 0.000000 -0.907500
v -0.500000 0.000000 -0.907500
v 0.500000 0.000000 -0.907500
v 0.900000 0.000000 -0.907500
v -0.900000 0.000000 -0.907500
v -0.134350 0.000000 0.210390
v -0.054779 0.000000 -0.034893
v 0.178152 0.000000 -0.221101
v 0.393792 0.000000 -0.296274
v 0.036726 -0.000000 0.741254
v -0.881448 0.000000 -0.494892
v -0.534496 0.000000 0.278376
v -0.555590 0.000000 0.355926
v -0.774372 0.000000 0.458335
v -0.443300 0.000000 -0.762675
v 0.067845 0.000000 -0.286066
v -0.533672 -0.000888 -0.480616
v -0.700000 0.000000 0.907500
v -0.059071 0.030748 0.172908
v 0.007231 0.030748 -0.031472
v 0.201319 0.030748 -0.186627
v 0.380999 0.030748 -0.249265
v 0.802793 0.030748 -0.419018
v 0.802793 0.030748 -0.002397
v 0.083477 0.030748 0.615247
v 0.166937 0.030748 0.858098
v 0.084325 0.030748 0.739059
v 0.857868 0.030748 0.101931
v 0.857868 0.030748 0.518552
v 0.857868 0.030748 0.858098
v -0.879653 0.030748 -0.402381
v -0.864195 0.030748 -0.398125
v -0.575100 0.030748 0.246194
v -0.592676 0.030748 0.310813
v -0.774974 0.030748 0.396144
v -0.879653 0.030748 0.430861
v -0.879653 0.030748 0.014240
v -0.377812 0.030748 -0.729464
v -0.425057 0.030748 -0.850139
v -0.008435 0.030748 -0.850139
v 0.319688 0.030748 -0.340839
v 0.140008 0.030748 -0.278202
v 0.048096 0.030748 -0.332334
v -0.484819 0.029859 -0.483669
v -0.425108 0.030748 -0.721409
v 0.000800 0.030748 -0.324279
v -0.495951 0.030748 0.391095
v -0.478375 0.030748 0.326477
v -0.144956 0.030748 0.269828
v -0.002408 0.030748 0.712166
v 0.084933 0.030748 0.850690
v -0.449631 0.030748 0.850690
v 0.839760 0.030748 -0.533978
v 0.417966 0.030748 -0.364224
v 0.089842 0.030748 -0.873524
v 0.506463 0.030748 -0.873524
v 0.839760 0.030748 -0.873524
v -0.886425 0.030748 0.532240
v -0.781746 0.030748 0.497523
v -0.719776 0.030748 0.871786
v -0.886425 0.030748 0.871786
v -0.534794 0.030748 -0.869270
v -0.487550 0.030748 -0.748596
v -0.547261 0.029859 -0.510855
v -0.852633 0.030748 -0.525467
v -0.868091 0.030748 -0.529724
v -0.868091 0.030748 -0.869270
v -0.778397 0.030748 -0.463521
v -0.545667 0.029859 -0.462787
v 0.012594 0.030748 -0.289519
v 0.104507 0.030748 -0.235387
v -0.089581 0.030748 -0.080231
v -0.801374 0.030748 -0.414075
v -0.112558 0.030748 -0.030785
v -0.178860 0.030748 0.173595
v -0.512279 0.030748 0.230244
v -0.750712 0.030748 0.491516
v -0.568414 0.030748 0.406185
v -0.522094 0.030748 0.865780
v -0.688742 0.030748 0.865780
vn 0.0000 1.0000 0.0000
vn -0.4336 0.8901 -0.1407
vn -0.3723 0.8028 -0.4658
vn -0.2001 0.7941 -0.5739
vn -0.2318 0.7840 -0.5759
vn 0.3016 0.9534 0.0000
vn 0.2781 0.9043 0.3238
vn -0.3301 0.9379 0.1064
vn -0.4757 0.8217 0.3139
vn -0.3932 0.7921 -0.4669
vn 0.5895 0.8078 0.0000
vn 0.0000 0.8490 0.5284
vn 0.0869 0.9449 -0.3157
vn 0.7207 0.6133 -0.3234
vn 0.5234 0.8401 0.1424
vn 0.2024 0.8786 0.4324
vn 0.1451 0.8875 0.4374
vn -0.8339 0.5518 0.0000
vn -0.4959 0.8464 0.1941
vn 0.0000 0.8814 -0.4724
vn 0.5275 0.7787 -0.3398
vn 0.1382 0.9076 0.3964
vn -0.3642 0.6965 0.6183
vn -0.5685 0.5523 0.6097
vn -0.0028 1.0000 0.0030
vn -0.6102 0.7730 -0.1735
vn 0.5904 0.5005 -0.6332
vn -0.2724 0.4793 0.8343
vn -0.4036 0.9083 -0.1098
vn -0.0797 0.8795 -0.4692
vn 0.7000 0.6776 -0.2256
vn 0.7310 0.5014 -0.4629
vn 0.0000 0.8795 0.4760
vn -0.4801 0.8759 0.0484
vn 0.1847 0.8690 0.4590
vn -0.3984 0.8805 0.2567
vn 0.0000 0.7415 -0.6710
vn 0.4546 0.8907 0.0000
vn -0.2082 0.7501 -0.6277
vn 0.9014 0.4064 -0.1493
vn 0.0000 0.7578 0.6525
vn -0.9148 0.4039 0.0000
vn 0.0008 1.0000 0.0013
vn 0.5149 0.8332 -0.2016
vn 0.6867 0.6986 0.2007
vn -0.0294 0.7065 0.7071
vn -0.1693 0.7702 0.6149
vn -0.6939 0.7201 0.0000
vn 0.0000 0.7792 -0.6267
vn 0.0006 1.0000 -0.0028
vn 0.0224 0.6041 -0.7966
vn 0.2639 0.4837 -0.8345
vn 0.3934 0.6318 -0.6679
vn 0.2959 0.8806 0.3701
vn -0.3912 0.5939 0.7031
vn 0.3386 0.7176 -0.6085
vn 0.4727 0.8678 0.1533
vn 0.0963 0.8180 0.5671
vn -0.5563 0.7926 0.2496
vn -0.2580 0.7934 -0.5513
vn 0.8611 0.5010 -0.0868
vn 0.0000 0.8050 0.5933
vn -0.8524 0.5036 0.1411
usemtl None
s off
f 39//1 34//1 4//1 23//1
f 37//1 35//1 8//1 12//1
f 25//1 15//1 7//1 24//1
f 27//1 18//1 15//1 25//1
f 40//1 37//1 12//1 28//1
f 35//1 38//1 16//1 8//1
f 24//1 7//1 11//1 26//1
f 14//1 6//1 19//1 21//1
f 30//1 14//1 21//1 53//1 33//1
f 22//1 2//1 18//1 27//1
f 6//1 10//1 20//1 19//1
f 10//1 22//1 27//1 20//1
f 38//1 39//1 23//1 16//1
f 1//1 30//1 33//1 17//1
f 5//1 29//1 32//1 13//1
f 36//1 40//1 28//1 3//1
f 17//1 33//1 31//1 9//1
f 9//1 31//1 29//1 5//1
f 13//1 32//1 40//1 36//1
f 26//1 11//1 34//1 39//1
f 54//1 60//1 59//1 58//1 57//1 56//1 55//1
f 42//2 41//2 54//2 55//2
f 43//3 42//3 55//3 56//3
f 44//4 43//4 56//4 57//4
f 26//5 44//5 57//5 58//5
f 24//6 26//6 58//6 59//6
f 45//7 24//7 59//7 60//7
f 41//8 45//8 60//8 54//8
f 61//1 65//1 64//1 63//1 62//1
f 45//9 20//9 61//9 62//9
f 24//10 45//10 62//10 63//10
f 25//11 24//11 63//11 64//11
f 27//11 25//11 64//11 65//11
f 20//12 27//12 65//12 61//12
f 66//1 72//1 71//1 70//1 69//1 68//1 67//1
f 46//13 32//13 66//13 67//13
f 47//14 46//14 67//14 68//14
f 48//15 47//15 68//15 69//15
f 49//16 48//16 69//16 70//16
f 31//17 49//17 70//17 71//17
f 29//18 31//18 71//18 72//18
f 32//18 29//18 72//18 66//18
f 73//1 78//1 77//1 76//1 75//1 74//1
f 37//19 50//19 73//19 74//19
f 35//20 37//20 74//20 75//20
f 44//21 35//21 75//21 76//21
f 43//22 44//22 76//22 77//22
f 51//23 43//23 77//23 78//23
f 50//24 51//24 78//24 73//24
f 79//25 81//25 80//25
f 50//26 52//26 79//26 80//26
f 51//27 50//27 80//27 81//27
f 52//28 51//28 81//28 79//28
f 82//1 87//1 86//1 85//1 84//1 83//1
f 47//29 48//29 82//29 83//29
f 41//30 47//30 83//30 84//30
f 45//31 41//31 84//31 85//31
f 20//32 45//32 85//32 86//32
f 21//33 20//33 86//33 87//33
f 48//34 21//34 87//34 82//34
f 88//1 92//1 91//1 90//1 89//1
f 44//35 26//35 88//35 89//35
f 35//36 44//36 89//36 90//36
f 38//37 35//37 90//37 91//37
f 39//37 38//37 91//37 92//37
f 26//38 39//38 92//38 88//38
f 93//1 96//1 95//1 94//1
f 49//39 31//39 93//39 94//39
f 53//40 49//40 94//40 95//40
f 33//41 53//41 95//41 96//41
f 31//42 33//42 96//42 93//42
f 97//43 102//43 101//43 100//43 99//43 98//43
f 50//44 37//44 97//44 98//44
f 52//45 50//45 98//45 99//45
f 46//46 52//46 99//46 100//46
f 32//47 46//47 100//47 101//47
f 40//48 32//48 101//48 102//48
f 37//49 40//49 102//49 97//49
f 103//50 107//50 106//50 105//50 104//50
f 52//51 46//51 103//51 104//51
f 51//52 52//52 104//52 105//52
f 43//53 51//53 105//53 106//53
f 42//54 43//54 106//54 107//54
f 46//55 42//55 107//55 103//55
f 108//1 111//1 110//1 109//1
f 42//56 46//56 108//56 109//56
f 41//57 42//57 109//57 110//57
f 47//58 41//58 110//58 111//58
f 46//59 47//59 111//59 108//59
f 112//1 115//1 114//1 113//1
f 48//60 49//60 112//60 113//60
f 21//61 48//61 113//61 114//61
f 53//62 21//62 114//62 115//62
f 49//63 53//63 115//63 112//63
