# Blender v2.79 (sub 0) OBJ File: 'props.blend'
# www.blender.org
mtllib prop_v2_1.mtl
o prop_v2_1_Icosphere
v -0.933458 0.005152 -0.692139
v -0.819271 0.081131 -0.670277
v -0.910476 0.116578 -0.648965
v -1.004505 0.062761 -0.747942
v -0.949168 -0.018623 -0.818019
v -0.909737 0.006540 -0.784500
v -0.806790 0.181285 -0.708151
v -0.947147 0.153155 -0.740787
v -0.937048 0.092980 -0.866722
v -0.809285 0.048456 -0.878758
v -0.739792 0.101558 -0.779573
v -0.830101 0.122489 -0.801075
v -0.923693 0.058971 -0.655798
v -0.851187 0.032925 -0.663040
v -0.870161 0.108020 -0.647356
v -0.831117 0.026740 -0.710595
v -0.958766 -0.001186 -0.740412
v -0.952437 0.025066 -0.711323
v -0.961905 0.089137 -0.685037
v -0.959662 -0.017740 -0.758023
v -0.981130 0.011358 -0.785935
v -0.967967 -0.014308 -0.815209
v -0.744034 0.073283 -0.699146
v -0.794253 0.040772 -0.776939
v -0.875298 0.153546 -0.657243
v -0.811089 0.121065 -0.658560
v -0.975854 0.116758 -0.744650
v -0.949281 0.153687 -0.692025
v -0.949885 0.030918 -0.857612
v -0.958954 0.077839 -0.815109
v -0.853837 0.007391 -0.833546
v -0.854622 -0.010606 -0.849791
v -0.757016 0.160609 -0.748691
v -0.886542 0.184255 -0.719723
v -0.938588 0.130931 -0.811120
v -0.896374 0.056126 -0.880419
v -0.745129 0.069324 -0.836230
v -0.833938 0.152261 -0.742265
v -0.809214 0.131007 -0.808729
v -0.893510 0.146747 -0.771428
v -0.906316 0.137223 -0.870236
v -0.814475 0.104160 -0.870477
vn -0.1116 -0.5421 0.8328
vn 0.7922 -0.4652 0.3949
vn -0.8003 -0.2290 0.5541
vn -0.8218 -0.3509 0.4488
vn 0.7660 0.4485 -0.4605
vn 0.2271 -0.6114 0.7581
vn 0.0062 0.2129 0.9771
vn -0.8248 0.4142 0.3849
vn -0.8080 -0.3749 -0.4545
vn 0.2175 -0.9482 0.2314
vn 0.3089 -0.3255 0.8936
vn -0.3629 0.5187 0.7741
vn -0.7851 0.4430 -0.4330
vn -0.2045 -0.6129 -0.7632
vn 0.2565 -0.9262 0.2762
vn -0.1356 0.8053 -0.5772
vn -0.2200 0.8035 -0.5532
vn -0.7766 0.5101 -0.3697
vn 0.0321 0.1499 -0.9882
vn 0.5038 0.7296 -0.4625
vn -0.4563 0.8296 -0.3218
vn 0.5566 0.7435 -0.3707
vn 0.5045 0.1728 -0.8459
vn 0.3334 0.9274 -0.1698
vn 0.0441 0.1298 -0.9906
vn -0.2423 0.0916 -0.9659
vn 0.3007 0.9448 -0.1300
vn -0.2871 0.9563 -0.0550
vn -0.0623 0.9495 -0.3076
vn 0.1336 0.8877 -0.4407
vn 0.2181 0.7758 -0.5921
vn 0.1277 0.7029 -0.6997
vn -0.4707 0.7744 -0.4227
vn -0.1297 0.9294 -0.3455
vn 0.5080 0.5109 -0.6935
vn 0.7187 -0.6313 0.2915
vn 0.4948 -0.8689 -0.0084
vn 0.4673 -0.8330 -0.2962
vn -0.0204 -0.4276 -0.9038
vn -0.1401 -0.4841 -0.8637
vn -0.3672 -0.0603 -0.9282
vn -0.8914 0.3624 -0.2720
vn -0.8458 0.3544 -0.3986
vn -0.7382 0.6123 -0.2833
vn -0.4483 0.8934 -0.0294
vn -0.2154 0.8605 0.4617
vn -0.0313 0.8948 0.4454
vn 0.6696 0.4431 0.5961
vn 0.6729 0.4382 0.5960
vn 0.9681 0.2160 0.1270
vn 0.8077 -0.4141 0.4197
vn 0.2397 -0.6563 0.7154
vn 0.2386 0.4956 0.8351
vn -0.9256 0.1398 -0.3518
vn -0.9207 0.1488 -0.3607
vn -0.8306 0.0331 -0.5559
vn -0.7824 0.6214 -0.0410
vn -0.9242 0.2149 0.3158
vn -0.6329 0.2046 0.7467
vn 0.3138 0.5901 0.7438
vn 0.1335 0.2247 0.9652
vn 0.2441 -0.3187 0.9159
vn 0.7265 -0.6593 -0.1935
vn 0.4630 -0.8836 0.0704
vn 0.2865 -0.9571 -0.0432
vn 0.2707 -0.9533 0.1339
vn 0.9861 0.0931 -0.1376
vn 0.2273 0.9735 0.0254
vn -0.7405 -0.6613 -0.1198
vn -0.8791 -0.2757 0.3887
vn -0.7028 -0.6010 0.3807
vn -0.6965 -0.3580 0.6218
vn -0.7276 -0.3496 0.5902
vn -0.5877 0.0390 0.8082
vn 0.2016 -0.9780 0.0528
vn 0.1658 -0.9666 0.1957
vn 0.3361 -0.9404 -0.0527
vn -0.0616 -0.1036 0.9927
vn 0.0268 -0.1979 0.9799
vn 0.3634 -0.1016 0.9261
usemtl None
s off
f 1//1 14//1 13//1
f 2//2 14//2 16//2
f 1//3 13//3 18//3
f 1//4 18//4 20//4
f 1//5 20//5 17//5
f 2//6 16//6 23//6
f 3//7 15//7 25//7
f 4//8 19//8 27//8
f 5//9 21//9 29//9
f 6//10 22//10 31//10
f 2//11 23//11 26//11
f 3//12 25//12 28//12
f 4//13 27//13 30//13
f 5//14 29//14 32//14
f 6//15 31//15 24//15
f 7//16 33//16 38//16
f 8//17 34//17 40//17
f 9//18 35//18 41//18
f 10//19 36//19 42//19
f 11//20 37//20 39//20
f 39//21 42//21 12//21
f 39//22 37//22 42//22
f 37//23 10//23 42//23
f 42//24 41//24 12//24
f 42//25 36//25 41//25
f 36//26 9//26 41//26
f 41//27 40//27 12//27
f 41//28 35//28 40//28
f 35//29 8//29 40//29
f 40//30 38//30 12//30
f 40//31 34//31 38//31
f 34//32 7//32 38//32
f 38//33 39//33 12//33
f 38//34 33//34 39//34
f 33//35 11//35 39//35
f 24//36 37//36 11//36
f 24//37 31//37 37//37
f 31//38 10//38 37//38
f 32//39 36//39 10//39
f 32//40 29//40 36//40
f 29//41 9//41 36//41
f 30//42 35//42 9//42
f 30//43 27//43 35//43
f 27//44 8//44 35//44
f 28//45 34//45 8//45
f 28//46 25//46 34//46
f 25//47 7//47 34//47
f 26//48 33//48 7//48
f 26//49 23//49 33//49
f 23//50 11//50 33//50
f 31//51 32//51 10//51
f 31//52 22//52 32//52
f 22//53 5//53 32//53
f 29//54 30//54 9//54
f 29//55 21//55 30//55
f 21//56 4//56 30//56
f 27//57 28//57 8//57
f 27//58 19//58 28//58
f 19//59 3//59 28//59
f 25//60 26//60 7//60
f 25//61 15//61 26//61
f 15//62 2//62 26//62
f 23//63 24//63 11//63
f 23//64 16//64 24//64
f 16//65 6//65 24//65
f 17//66 22//66 6//66
f 17//67 20//67 22//67
f 20//68 5//68 22//68
f 20//69 21//69 5//69
f 20//70 18//70 21//70
f 18//71 4//71 21//71
f 18//72 19//72 4//72
f 18//73 13//73 19//73
f 13//74 3//74 19//74
f 16//75 17//75 6//75
f 16//76 14//76 17//76
f 14//77 1//77 17//77
f 13//78 15//78 3//78
f 13//79 14//79 15//79
f 14//80 2//80 15//80
