# Blender v2.79 (sub 0) OBJ File: 'props.blend'
# www.blender.org
mtllib prop_v2_7.mtl
o prop_v2_7_Cylinder
v -0.485932 0.013552 -0.792940
v -0.463659 0.115068 -0.792848
v -0.466979 0.013552 -0.779169
v -0.444915 0.106526 -0.781687
v -0.474219 0.013552 -0.756889
v -0.448831 0.108178 -0.758649
v -0.497646 0.013552 -0.756889
v -0.469995 0.117740 -0.755570
v -0.504886 0.013552 -0.779170
v -0.479159 0.121999 -0.776706
v -0.399683 0.090828 -0.804461
v -0.468134 0.122023 -0.845217
v -0.413985 0.096859 -0.720326
v -0.491275 0.131780 -0.709083
v -0.524741 0.147333 -0.786271
v -0.422203 0.139824 -0.784825
v -0.448204 0.151674 -0.800306
v -0.427636 0.142115 -0.752866
v -0.456995 0.155380 -0.748596
v -0.469707 0.161288 -0.777915
v -0.459400 0.137460 -0.833126
v -0.402341 0.111457 -0.799152
v -0.478691 0.145594 -0.719647
v -0.506587 0.158558 -0.783989
v -0.414263 0.116484 -0.729019
v -0.479403 0.082202 -0.792894
v -0.460555 0.077931 -0.780428
v -0.466133 0.078756 -0.757769
v -0.488429 0.083538 -0.756230
v -0.496630 0.085667 -0.777938
v -0.531666 0.028578 -0.763592
v -0.544679 0.088673 -0.761468
v -0.544078 0.028578 -0.769778
v -0.556714 0.083617 -0.766151
v -0.542030 0.028578 -0.783495
v -0.556680 0.084594 -0.779985
v -0.528352 0.028578 -0.785786
v -0.544625 0.090255 -0.783852
v -0.521947 0.028578 -0.773485
v -0.537208 0.092776 -0.772407
v -0.580896 0.074324 -0.748431
v -0.536946 0.092790 -0.731329
v -0.580772 0.077894 -0.798952
v -0.536746 0.098567 -0.813074
v -0.509660 0.107773 -0.771281
v -0.569667 0.103328 -0.762098
v -0.552973 0.110343 -0.755602
v -0.569621 0.104684 -0.781288
v -0.552897 0.112537 -0.786652
v -0.542608 0.116034 -0.770777
v -0.543227 0.101929 -0.737535
v -0.579863 0.086535 -0.751791
v -0.543061 0.106744 -0.805675
v -0.520482 0.114418 -0.770837
v -0.579760 0.089511 -0.793904
v -0.535482 0.069217 -0.762980
v -0.547706 0.066689 -0.768415
v -0.546665 0.067178 -0.782190
v -0.533798 0.070008 -0.785269
v -0.526887 0.071268 -0.773397
v -0.492654 0.022698 -0.715207
v -0.495573 0.073331 -0.706569
v -0.500455 0.022698 -0.709630
v -0.502334 0.069835 -0.700735
v -0.508170 0.022698 -0.715326
v -0.510774 0.070511 -0.705239
v -0.505137 0.022698 -0.724423
v -0.509229 0.074425 -0.713856
v -0.495547 0.022698 -0.724350
v -0.499835 0.076168 -0.714679
v -0.499346 0.063409 -0.680221
v -0.474657 0.076178 -0.701527
v -0.530167 0.065877 -0.696669
v -0.524526 0.080172 -0.728139
v -0.490219 0.086539 -0.731141
v -0.504056 0.083465 -0.691509
v -0.494678 0.088316 -0.699602
v -0.515763 0.084403 -0.697757
v -0.513621 0.089833 -0.709711
v -0.500589 0.092251 -0.710851
v -0.480483 0.082497 -0.699701
v -0.501064 0.071853 -0.681941
v -0.522053 0.085827 -0.721884
v -0.493455 0.091134 -0.724387
v -0.526756 0.073911 -0.695651
v -0.493517 0.059877 -0.712678
v -0.500798 0.058129 -0.706972
v -0.508875 0.058467 -0.712072
v -0.506586 0.060424 -0.720929
v -0.497094 0.061296 -0.721304
vn 0.4979 -0.2373 -0.8341
vn 0.8428 -0.4889 0.2253
vn 0.0580 -0.0505 0.9970
vn -0.4915 -0.8701 0.0378
vn -0.8460 0.3947 0.3584
vn -0.5876 0.3079 -0.7482
vn 0.0000 -1.0000 0.0000
vn 0.5845 0.6527 -0.4821
vn -0.3219 -0.9467 0.0131
vn -0.4721 -0.8782 -0.0763
vn -0.3673 -0.9256 -0.0915
vn -0.3987 -0.9124 0.0930
vn 0.4123 0.9110 0.0048
vn -0.1113 0.9638 0.2424
vn 0.8387 0.5346 0.1043
vn -0.0026 0.9180 -0.3967
vn 0.4087 0.7268 0.5520
vn 0.3026 0.3896 0.8699
vn -0.3486 0.6922 -0.6320
vn 0.9833 0.0852 0.1610
vn -0.5206 0.7647 0.3798
vn 0.5808 0.2723 -0.7671
vn -0.5859 0.0808 -0.8064
vn -0.9460 0.1030 0.3074
vn 0.0000 -0.0094 1.0000
vn 0.9450 -0.1130 0.3070
vn 0.5862 -0.0743 -0.8068
vn -0.3533 -0.2373 0.9049
vn -0.8684 -0.4889 -0.0830
vn -0.2219 -0.0505 -0.9738
vn 0.4785 -0.8701 -0.1185
vn 0.7752 0.3947 -0.4932
vn 0.7032 0.3079 0.6409
vn -0.4968 0.6527 0.5720
vn 0.3153 -0.9467 -0.0661
vn 0.4782 -0.8782 -0.0027
vn 0.3774 -0.9256 0.0296
vn 0.3778 -0.9124 -0.1576
vn -0.4074 0.9110 0.0634
vn 0.0697 0.9638 -0.2575
vn -0.8444 0.5346 0.0357
vn 0.0681 0.9180 0.3908
vn -0.4943 0.7268 -0.4769
vn -0.4421 0.3896 -0.8079
vn 0.4482 0.6922 0.5657
vn -0.9964 0.0853 0.0036
vn 0.4507 0.7647 -0.4606
vn -0.4461 0.2723 0.8525
vn 0.7110 0.0808 0.6985
vn 0.8822 0.1030 -0.4594
vn -0.1652 -0.0094 -0.9862
vn -0.9827 -0.1130 -0.1467
vn -0.4448 -0.0743 0.8925
vn 0.6338 -0.2373 0.7361
vn -0.4803 -0.4889 0.7282
vn -0.9642 -0.0505 -0.2603
vn 0.1196 -0.8701 -0.4782
vn -0.0724 0.3947 -0.9160
vn 0.8957 0.3080 -0.3208
vn 0.2725 0.6527 0.7069
vn 0.0894 -0.9467 -0.3096
vn 0.2217 -0.8782 -0.4237
vn 0.2030 -0.9256 -0.3195
vn 0.0378 -0.9124 -0.4077
vn -0.1350 0.9110 0.3896
vn -0.1948 0.9638 -0.1822
vn -0.3642 0.5346 0.7626
vn 0.3771 0.9180 0.1230
vn -0.6529 0.7268 0.2131
vn -0.9209 0.3896 0.0119
vn 0.7098 0.6922 -0.1308
vn -0.4638 0.0852 0.8818
vn -0.1956 0.7647 -0.6140
vn 0.5440 0.2723 0.7937
vn 0.9525 0.0426 -0.3015
vn 0.0076 0.0925 -0.9957
vn -0.9486 0.0101 -0.3163
vn -0.5918 -0.0846 0.8016
vn 0.5807 -0.0553 0.8123
vn 0.4040 -0.2596 -0.8772
vn 0.8662 -0.4658 0.1806
vn 0.1245 -0.0436 0.9913
vn -0.7978 0.4217 0.4309
vn -0.6211 0.2986 -0.7246
vn -0.6472 0.0621 -0.7598
vn -0.9250 0.1184 0.3611
vn 0.0699 0.0048 0.9975
vn 0.9661 -0.0917 0.2412
vn 0.5428 -0.0511 -0.8383
vn -0.2535 -0.2596 0.9318
vn -0.8842 -0.4658 -0.0351
vn -0.2865 -0.0436 -0.9571
vn 0.7157 0.4217 -0.5567
vn 0.7323 0.2986 0.6121
vn -0.9964 0.0852 0.0036
vn 0.7638 0.0621 0.6425
vn 0.8526 0.1184 -0.5089
vn -0.2337 0.0048 -0.9723
vn -0.9927 -0.0917 -0.0783
vn -0.3969 -0.0511 0.9164
vn 0.7044 -0.2596 0.6607
vn -0.4453 -0.4658 0.7646
vn -0.9798 -0.0436 -0.1954
vn -0.1564 0.4217 -0.8932
vn 0.8839 0.2986 -0.3600
vn 0.2724 0.6527 0.7069
vn 0.0378 -0.9124 -0.4076
vn 0.9255 0.0665 -0.3729
vn -0.0463 0.0768 -0.9960
vn -0.9674 -0.0137 -0.2530
vn -0.5347 -0.0684 0.8423
vn 0.6221 -0.0388 0.7820
usemtl None
s off
f 2//1 27//1 26//1
f 27//2 6//2 28//2
f 28//3 8//3 29//3
f 10//4 14//4 15//4
f 29//5 10//5 30//5
f 10//6 26//6 30//6
f 3//7 7//7 1//7
f 21//8 16//8 22//8
f 4//9 13//9 6//9
f 10//10 12//10 2//10
f 4//11 12//11 11//11
f 8//12 13//12 14//12
f 17//13 19//13 18//13
f 23//14 20//14 24//14
f 25//15 16//15 18//15
f 24//16 17//16 21//16
f 23//17 18//17 19//17
f 14//18 25//18 23//18
f 15//19 21//19 12//19
f 13//20 22//20 25//20
f 14//21 24//21 15//21
f 12//22 22//22 11//22
f 30//23 1//23 9//23
f 7//24 30//24 9//24
f 5//25 29//25 7//25
f 3//26 28//26 5//26
f 1//27 27//27 3//27
f 32//28 57//28 56//28
f 57//29 36//29 58//29
f 58//30 38//30 59//30
f 40//31 44//31 45//31
f 59//32 40//32 60//32
f 40//33 56//33 60//33
f 35//7 37//7 39//7
f 51//34 46//34 52//34
f 34//35 43//35 36//35
f 40//36 42//36 32//36
f 34//37 42//37 41//37
f 36//38 44//38 38//38
f 47//39 49//39 46//39
f 53//40 50//40 54//40
f 55//41 46//41 48//41
f 54//42 47//42 51//42
f 53//43 48//43 49//43
f 44//44 55//44 53//44
f 45//45 51//45 42//45
f 43//46 52//46 55//46
f 44//47 54//47 45//47
f 42//48 52//48 41//48
f 60//49 31//49 39//49
f 37//50 60//50 39//50
f 35//51 59//51 37//51
f 33//52 58//52 35//52
f 31//53 57//53 33//53
f 62//54 87//54 86//54
f 87//55 66//55 88//55
f 88//56 68//56 89//56
f 70//57 74//57 75//57
f 89//58 70//58 90//58
f 70//59 86//59 90//59
f 65//7 67//7 69//7
f 81//60 76//60 82//60
f 66//61 71//61 73//61
f 62//62 75//62 72//62
f 64//63 72//63 71//63
f 68//64 73//64 74//64
f 80//65 79//65 78//65
f 83//66 80//66 84//66
f 85//67 76//67 78//67
f 84//68 77//68 81//68
f 83//69 78//69 79//69
f 74//70 85//70 83//70
f 75//71 81//71 72//71
f 73//72 82//72 85//72
f 75//73 83//73 84//73
f 72//74 82//74 71//74
f 69//75 86//75 61//75
f 89//76 69//76 67//76
f 88//77 67//77 65//77
f 63//78 88//78 65//78
f 61//79 87//79 63//79
f 2//80 4//80 27//80
f 27//81 4//81 6//81
f 28//82 6//82 8//82
f 10//4 8//4 14//4
f 29//83 8//83 10//83
f 10//84 2//84 26//84
f 9//7 1//7 7//7
f 3//7 5//7 7//7
f 21//8 17//8 16//8
f 4//9 11//9 13//9
f 10//10 15//10 12//10
f 4//11 2//11 12//11
f 8//12 6//12 13//12
f 18//13 16//13 17//13
f 17//13 20//13 19//13
f 23//14 19//14 20//14
f 25//15 22//15 16//15
f 24//16 20//16 17//16
f 23//17 25//17 18//17
f 14//18 13//18 25//18
f 15//19 24//19 21//19
f 13//20 11//20 22//20
f 14//21 23//21 24//21
f 12//22 21//22 22//22
f 30//85 26//85 1//85
f 7//86 29//86 30//86
f 5//87 28//87 29//87
f 3//88 27//88 28//88
f 1//89 26//89 27//89
f 32//90 34//90 57//90
f 57//91 34//91 36//91
f 58//92 36//92 38//92
f 40//31 38//31 44//31
f 59//93 38//93 40//93
f 40//94 32//94 56//94
f 39//7 31//7 33//7
f 33//7 35//7 39//7
f 51//34 47//34 46//34
f 34//35 41//35 43//35
f 40//36 45//36 42//36
f 34//37 32//37 42//37
f 36//38 43//38 44//38
f 48//39 46//39 49//39
f 47//39 50//39 49//39
f 53//40 49//40 50//40
f 55//41 52//41 46//41
f 54//42 50//42 47//42
f 53//43 55//43 48//43
f 44//44 43//44 55//44
f 45//45 54//45 51//45
f 43//95 41//95 52//95
f 44//47 53//47 54//47
f 42//48 51//48 52//48
f 60//96 56//96 31//96
f 37//97 59//97 60//97
f 35//98 58//98 59//98
f 33//99 57//99 58//99
f 31//100 56//100 57//100
f 62//101 64//101 87//101
f 87//102 64//102 66//102
f 88//103 66//103 68//103
f 70//57 68//57 74//57
f 89//104 68//104 70//104
f 70//105 62//105 86//105
f 69//7 61//7 63//7
f 63//7 65//7 69//7
f 81//106 77//106 76//106
f 66//61 64//61 71//61
f 62//62 70//62 75//62
f 64//63 62//63 72//63
f 68//107 66//107 73//107
f 78//65 76//65 77//65
f 77//65 80//65 78//65
f 83//66 79//66 80//66
f 85//67 82//67 76//67
f 84//68 80//68 77//68
f 83//69 85//69 78//69
f 74//70 73//70 85//70
f 75//71 84//71 81//71
f 73//72 71//72 82//72
f 75//73 74//73 83//73
f 72//74 81//74 82//74
f 69//108 90//108 86//108
f 89//109 90//109 69//109
f 88//110 89//110 67//110
f 63//111 87//111 88//111
f 61//112 86//112 87//112
