# Blender v2.79 (sub 0) OBJ File: 'props.blend'
# www.blender.org
mtllib prop_v2_2.mtl
o prop_v2_2_Icosphere.001
v -0.342069 0.064736 -0.728434
v -0.270672 0.041776 -0.701766
v -0.286318 0.104210 -0.717973
v -0.335904 0.115098 -0.794598
v -0.369150 0.067807 -0.818025
v -0.337660 0.033032 -0.754493
v -0.230917 0.083046 -0.750271
v -0.272122 0.136514 -0.784085
v -0.280879 0.115837 -0.844120
v -0.280360 0.042200 -0.848352
v -0.227907 0.027410 -0.769775
v -0.218344 0.100578 -0.819962
v -0.314317 0.081735 -0.724117
v -0.310658 0.047224 -0.702796
v -0.275648 0.070315 -0.706751
v -0.302010 0.024897 -0.712821
v -0.353916 0.044310 -0.727000
v -0.342361 0.091511 -0.763888
v -0.320381 0.119492 -0.754919
v -0.369633 0.068602 -0.769629
v -0.348359 0.091800 -0.806796
v -0.371466 0.047409 -0.790983
v -0.246922 0.029483 -0.733608
v -0.275016 0.017600 -0.765067
v -0.249570 0.099175 -0.721643
v -0.242393 0.060666 -0.723075
v -0.308316 0.133293 -0.785706
v -0.281652 0.134244 -0.746567
v -0.324548 0.091665 -0.839135
v -0.313154 0.114624 -0.817715
v -0.314654 0.027674 -0.811688
v -0.334568 0.054141 -0.838419
v -0.221963 0.052570 -0.760553
v -0.241480 0.119779 -0.765875
v -0.275917 0.126738 -0.817084
v -0.278705 0.085117 -0.859366
v -0.249359 0.028760 -0.813118
v -0.224654 0.093973 -0.784146
v -0.217288 0.063580 -0.798074
v -0.240560 0.120849 -0.806509
v -0.242060 0.112998 -0.846886
v -0.235261 0.074028 -0.843949
vn -0.4001 0.4506 0.7980
vn -0.0823 -0.4346 0.8969
vn -0.5028 0.6878 0.5236
vn -0.6225 0.6220 0.4749
vn -0.7200 0.4545 0.5244
vn 0.2610 -0.8191 0.5109
vn 0.1405 0.3508 0.9259
vn -0.5756 0.8064 0.1359
vn -0.5752 0.6980 -0.4265
vn -0.3441 -0.9376 -0.0506
vn 0.6969 -0.3183 0.6427
vn 0.1640 0.6667 0.7270
vn -0.4042 0.8154 -0.4145
vn -0.4725 0.1095 -0.8745
vn -0.2401 -0.9707 -0.0056
vn 0.9504 0.1984 0.2397
vn 0.4635 0.8855 0.0338
vn 0.0405 0.9241 -0.3800
vn 0.2668 -0.2492 -0.9310
vn 0.7551 -0.5269 -0.3901
vn 0.8932 -0.2098 -0.3977
vn 0.7520 -0.5147 -0.4118
vn 0.4804 -0.5910 -0.6481
vn 0.7669 0.0859 -0.6359
vn 0.3314 -0.0133 -0.9434
vn -0.0315 0.4426 -0.8962
vn 0.6043 0.7776 -0.1736
vn 0.2174 0.9566 -0.1941
vn 0.2436 0.9219 -0.3012
vn 0.7304 0.6371 0.2462
vn 0.8478 0.5293 0.0331
vn 0.8827 0.3744 0.2840
vn 0.9696 0.1445 0.1975
vn 0.9729 0.1589 0.1678
vn 0.9680 -0.2464 0.0483
vn 0.1903 -0.9738 -0.1246
vn 0.0114 -0.9753 -0.2205
vn 0.0076 -0.9321 -0.3622
vn -0.2249 -0.2341 -0.9459
vn -0.3918 0.0872 -0.9159
vn -0.3208 0.4028 -0.8572
vn -0.2891 0.9051 -0.3118
vn -0.2686 0.8492 -0.4547
vn -0.0730 0.9585 -0.2756
vn 0.4003 0.9030 0.1563
vn 0.4840 0.7560 0.4407
vn 0.8564 0.3900 0.3383
vn 0.8825 0.1046 0.4585
vn 0.8130 -0.2888 0.5056
vn 0.8177 -0.3583 0.4505
vn -0.2749 -0.7777 -0.5653
vn -0.4348 -0.7806 -0.4490
vn -0.5627 -0.6361 -0.5280
vn -0.4571 0.7174 -0.5258
vn -0.5812 0.6904 -0.4308
vn -0.5645 0.5991 -0.5678
vn -0.0902 0.9952 0.0373
vn -0.3907 0.8874 0.2446
vn -0.3907 0.6658 0.6356
vn 0.8642 0.1431 0.4824
vn 0.4520 0.0511 0.8906
vn 0.4820 0.2316 0.8450
vn 0.2171 -0.9614 0.1693
vn 0.1625 -0.9622 0.2184
vn -0.2371 -0.9714 0.0132
vn -0.4665 -0.8804 0.0853
vn -0.9520 -0.1724 0.2528
vn -0.9952 0.0977 -0.0115
vn -0.7513 0.6597 -0.0183
vn -0.6520 0.7521 0.0962
vn -0.9010 0.4143 0.1287
vn -0.7986 0.5466 0.2519
vn -0.7139 0.3703 0.5944
vn -0.5373 0.4797 0.6937
vn -0.3817 -0.9123 0.1485
vn -0.3971 -0.4995 0.7699
vn -0.4773 0.3339 0.8128
vn -0.3545 0.1914 0.9152
vn -0.2308 0.4936 0.8385
vn -0.0020 0.1717 0.9851
usemtl None
s off
f 1//1 14//1 13//1
f 2//2 14//2 16//2
f 1//3 13//3 18//3
f 1//4 18//4 20//4
f 1//5 20//5 17//5
f 2//6 16//6 23//6
f 3//7 15//7 25//7
f 4//8 19//8 27//8
f 5//9 21//9 29//9
f 6//10 22//10 31//10
f 2//11 23//11 26//11
f 3//12 25//12 28//12
f 4//13 27//13 30//13
f 5//14 29//14 32//14
f 6//15 31//15 24//15
f 7//16 33//16 38//16
f 8//17 34//17 40//17
f 9//18 35//18 41//18
f 10//19 36//19 42//19
f 11//20 37//20 39//20
f 39//21 42//21 12//21
f 39//22 37//22 42//22
f 37//23 10//23 42//23
f 42//24 41//24 12//24
f 42//25 36//25 41//25
f 36//26 9//26 41//26
f 41//27 40//27 12//27
f 41//28 35//28 40//28
f 35//29 8//29 40//29
f 40//30 38//30 12//30
f 40//31 34//31 38//31
f 34//32 7//32 38//32
f 38//33 39//33 12//33
f 38//34 33//34 39//34
f 33//35 11//35 39//35
f 24//36 37//36 11//36
f 24//37 31//37 37//37
f 31//38 10//38 37//38
f 32//39 36//39 10//39
f 32//40 29//40 36//40
f 29//41 9//41 36//41
f 30//42 35//42 9//42
f 30//43 27//43 35//43
f 27//44 8//44 35//44
f 28//45 34//45 8//45
f 28//46 25//46 34//46
f 25//47 7//47 34//47
f 26//48 33//48 7//48
f 26//49 23//49 33//49
f 23//50 11//50 33//50
f 31//51 32//51 10//51
f 31//52 22//52 32//52
f 22//53 5//53 32//53
f 29//54 30//54 9//54
f 29//55 21//55 30//55
f 21//56 4//56 30//56
f 27//57 28//57 8//57
f 27//58 19//58 28//58
f 19//59 3//59 28//59
f 25//60 26//60 7//60
f 25//61 15//61 26//61
f 15//62 2//62 26//62
f 23//63 24//63 11//63
f 23//64 16//64 24//64
f 16//65 6//65 24//65
f 17//66 22//66 6//66
f 17//67 20//67 22//67
f 20//68 5//68 22//68
f 20//69 21//69 5//69
f 20//70 18//70 21//70
f 18//71 4//71 21//71
f 18//72 19//72 4//72
f 18//73 13//73 19//73
f 13//74 3//74 19//74
f 16//75 17//75 6//75
f 16//76 14//76 17//76
f 14//77 1//77 17//77
f 13//78 15//78 3//78
f 13//79 14//79 15//79
f 14//80 2//80 15//80
