# Blender v2.79 (sub 0) OBJ File: 'props.blend'
# www.blender.org
mtllib prop_v2_0.mtl
o prop_v2_0_Icosphere.004
v 0.998837 1.139291 -0.809660
v 1.053629 1.163250 -0.757098
v 0.977909 1.154060 -0.734276
v 0.931110 1.178119 -0.794026
v 0.977909 1.202177 -0.853775
v 1.053629 1.192987 -0.830953
v 1.019765 1.216886 -0.708979
v 0.944045 1.226076 -0.731802
v 0.944045 1.255813 -0.805656
v 1.019765 1.265003 -0.828479
v 1.066564 1.240944 -0.768729
v 0.974017 1.146495 -0.724410
v 1.063818 1.157393 -0.751477
v 1.063818 1.192660 -0.839064
v 0.918516 1.175027 -0.795271
v 0.974017 1.203559 -0.866131
v 1.079158 1.249535 -0.765270
v 1.023657 1.221003 -0.694409
v 0.933856 1.231901 -0.721476
v 0.933856 1.267169 -0.809064
v 1.023657 1.278067 -0.836130
v 0.998838 0.968862 -0.931659
v 1.023531 1.138336 -0.825326
v 1.023531 1.124934 -0.792042
v 0.989405 1.120792 -0.781756
v 0.968314 1.131635 -0.808684
v 0.989405 1.142477 -0.835612
v 1.023531 1.018406 -0.873615
v 1.023531 1.005005 -0.840331
v 0.989406 1.000863 -0.830045
v 0.968315 1.011705 -0.856973
v 0.989406 1.022548 -0.883901
v 1.023531 0.993661 -0.923739
v 1.023531 0.962196 -0.906494
v 0.989406 0.952472 -0.901165
v 0.968315 0.977928 -0.915117
v 0.989406 1.003384 -0.929069
vn -0.1876 0.9528 -0.2388
vn -0.6071 0.7371 0.2968
vn 0.4911 0.8704 -0.0342
vn 0.4911 0.6039 0.6278
vn -0.1876 0.5215 0.8324
vn -0.9822 0.1740 0.0701
vn -0.3035 0.5229 -0.7965
vn 0.7946 0.3897 -0.4655
vn 0.7946 -0.0416 0.6056
vn -0.3035 -0.1749 0.9366
vn -0.7946 0.0416 -0.6056
vn 0.3035 0.1749 -0.9366
vn 0.9822 -0.1740 -0.0701
vn 0.3035 -0.5229 0.7965
vn -0.7946 -0.3897 0.4655
vn -0.5898 -0.4749 -0.6532
vn 0.7470 -0.6167 -0.2483
vn 0.2219 -0.3905 -0.8935
vn 0.2400 -0.8602 0.4499
vn -0.6191 -0.7652 0.1768
vn -0.7947 0.0416 -0.6056
vn -0.5442 0.8341 -0.0904
vn 0.2079 0.4475 0.8698
vn 0.2078 0.9254 -0.3170
vn -0.5441 0.5388 0.6431
vn 0.6726 0.6864 0.2764
vn 0.3090 -0.3552 0.8822
vn -0.8090 -0.2195 0.5453
vn -0.8090 0.2195 -0.5453
vn 1.0000 0.0000 0.0000
vn 0.3090 0.3552 -0.8822
vn 0.2699 0.8745 -0.4030
vn 0.2837 -0.7987 0.5306
vn -0.7799 -0.5282 0.3358
vn -0.7703 0.5676 -0.2908
vn -0.4911 -0.0690 -0.8684
vn 0.1876 0.1244 -0.9743
vn 0.6071 -0.3819 -0.6969
vn 0.1876 -0.8882 -0.4194
vn -0.4911 -0.6948 -0.5254
usemtl None
s off
f 1//1 3//1 2//1
f 2//2 6//2 1//2
f 1//3 4//3 3//3
f 1//4 5//4 4//4
f 1//5 6//5 5//5
f 2//6 11//6 6//6
f 3//7 7//7 2//7
f 4//8 8//8 3//8
f 5//9 9//9 4//9
f 6//10 10//10 5//10
f 2//11 7//11 11//11
f 3//12 8//12 7//12
f 4//13 9//13 8//13
f 5//14 10//14 9//14
f 6//15 11//15 10//15
f 15//16 16//16 27//16 26//16
f 14//17 13//17 24//17 23//17
f 16//18 14//18 23//18 27//18
f 13//19 12//19 25//19 24//19
f 12//20 15//20 26//20 25//20
f 13//13 14//13 17//13
f 12//14 13//14 18//14
f 15//15 12//15 19//15
f 16//21 15//21 20//21
f 14//12 16//12 21//12
f 13//9 17//9 18//9
f 12//10 18//10 19//10
f 15//6 19//6 20//6
f 16//7 20//7 21//7
f 14//8 21//8 17//8
f 11//22 7//22 18//22 17//22
f 9//23 10//23 21//23 20//23
f 7//24 8//24 19//24 18//24
f 10//25 11//25 17//25 21//25
f 8//26 9//26 20//26 19//26
f 24//27 25//27 30//27 29//27
f 25//28 26//28 31//28 30//28
f 26//29 27//29 32//29 31//29
f 23//30 24//30 29//30 28//30
f 27//31 23//31 28//31 32//31
f 28//30 29//30 34//30 33//30
f 32//32 28//32 33//32 37//32
f 29//33 30//33 35//33 34//33
f 30//34 31//34 36//34 35//34
f 31//35 32//35 37//35 36//35
f 22//36 36//36 37//36
f 22//37 37//37 33//37
f 34//38 22//38 33//38
f 22//39 34//39 35//39
f 22//40 35//40 36//40
