# Blender v2.79 (sub 0) OBJ File: 'props.blend'
# www.blender.org
mtllib roof_v2.mtl
o roof_v2_Cube.003
v -0.399173 2.052789 -0.113090
v -0.399173 2.052789 0.108163
v -0.177920 2.052789 0.108163
v -0.216805 2.052789 -0.146914
v -0.153073 1.976299 -0.140754
v -0.114188 1.976299 0.114323
v -1.000000 2.000000 0.142857
v -1.000000 2.000000 -0.142857
v 0.135721 1.976299 0.162602
v 0.068399 1.976299 -0.070634
v 0.135692 2.026087 -0.068170
v 0.203014 2.026087 0.165066
v 1.000000 2.000000 -0.166285
v 1.000000 2.000000 0.142857
v 0.395612 2.026087 0.116787
v 0.395612 2.026087 -0.104467
v 0.458200 1.988260 -0.107823
v 0.458200 1.988260 0.113431
v -0.195336 2.000000 -1.000000
v 0.227748 2.000000 -1.000000
v 0.643738 1.988260 0.113431
v 0.679454 1.988260 -0.069322
v 0.743915 1.930806 -0.070644
v 0.708199 1.930806 0.112110
v 0.207847 2.000000 1.000000
v -0.142857 2.000000 1.000000
v 0.965168 1.930806 0.112110
v 0.965168 1.930806 -0.127286
v -0.109785 2.052789 0.178604
v -0.126886 2.052789 0.399858
v 0.190289 2.027482 -0.714286
v -0.142857 2.027482 -0.714286
v 0.111468 2.052789 0.399858
v 0.140124 2.052789 0.226883
v -0.126678 1.958288 0.460802
v -0.078073 1.958288 0.682055
v 0.142857 2.065310 -0.428571
v -0.142857 2.065310 -0.428571
v 0.111676 1.958288 0.682055
v 0.111676 1.958288 0.460802
v 0.714286 2.027482 -0.093140
v 0.428571 2.065310 -0.142857
v 0.092926 2.045494 -0.095986
v -0.193071 2.045494 -0.186535
v -0.428571 2.065310 -0.142857
v -0.714286 2.027482 -0.162090
v 0.668164 2.027482 0.142857
v 0.428571 2.065310 0.142857
v 0.179861 2.045494 0.205202
v -0.142857 2.045494 0.142857
v -0.428571 2.065310 0.142857
v -0.662283 2.027482 0.214475
v -0.964837 1.930806 -0.107672
v -0.964837 1.930806 0.113581
v 0.142857 2.065310 0.428571
v -0.164940 2.065310 0.428571
v -0.703313 1.930806 0.169041
v -0.743583 1.930806 -0.122566
v -1.000000 2.000000 -1.000000
v 1.000000 2.000000 1.000000
v 0.142857 2.027482 0.714286
v -0.102173 2.027482 0.714286
v -1.000000 2.000000 1.000000
v 1.000000 2.000000 -1.000000
v -0.457869 1.988260 -0.107672
v -0.457869 1.988260 0.113581
v -0.638852 1.988260 0.169041
v -0.679122 1.988260 -0.122566
v 0.104978 2.026087 -0.396161
v 0.066312 2.026087 -0.138611
v -0.155160 2.026087 -0.208731
v -0.116275 2.026087 -0.396161
v 0.150033 2.014962 -0.682055
v 0.113302 2.014962 -0.460802
v -0.107951 2.014962 -0.460802
v -0.107951 2.014962 -0.682055
v 0.180868 1.930806 -0.967770
v 0.151861 1.930806 -0.746516
v -0.106123 1.930806 -0.746516
v -0.146762 1.930806 -0.967770
v 0.116587 1.960778 0.746516
v 0.166915 1.960778 0.967770
v -0.104666 1.960778 0.967770
v -0.073162 1.960778 0.746516
v -0.672983 1.974918 -0.216088
v -0.908939 1.974918 -0.200204
v -0.626264 2.003922 0.259539
v -0.905167 2.003922 0.200394
v 0.908497 2.026281 -0.216590
v 0.672541 2.024985 -0.156183
v 0.436585 2.028521 -0.197242
v 0.159393 2.021785 -0.158534
v -0.242539 2.058340 -0.236275
v -0.437027 2.012745 -0.200204
v 0.907920 1.958612 0.200192
v 0.633875 1.941349 0.200192
v 0.436007 2.071320 0.247053
v 0.230611 2.047729 0.251679
v -0.197298 2.041750 0.200394
v -0.433254 2.041750 0.200394
v 0.200051 1.968726 0.672105
v 0.200051 2.031492 0.436148
v -0.163699 2.003922 0.672307
v -0.215535 2.041750 0.436350
v 0.200628 2.042744 -0.433199
v -0.201070 2.012745 -0.436161
v 0.239800 2.004917 -0.669155
v -0.201070 1.974918 -0.672117
v -0.908939 1.974918 -0.908073
v -0.244410 1.974918 -0.908073
v 0.270735 2.004917 -0.905111
v -0.905167 2.003922 0.908263
v -0.197298 2.003922 0.908263
v 0.907920 1.978738 0.908061
v 0.253723 1.960851 0.908061
v 0.944722 1.965327 -0.905111
vn 0.8787 -0.4044 -0.2536
vn 0.0000 -1.0000 0.0000
vn -0.0637 -0.6702 -0.7394
vn -0.4830 -0.8645 0.1394
vn 0.1958 -0.8338 0.5161
vn 0.7656 -0.6433 0.0000
vn 0.1103 -0.3759 -0.9201
vn -0.9334 -0.3589 0.0000
vn -0.0594 -0.3760 0.9247
vn 0.7832 -0.6026 0.1531
vn -0.2637 -0.3695 -0.8910
vn -0.9277 -0.3265 -0.1813
vn -0.0259 -0.3127 0.9495
vn 0.8932 -0.4496 0.0000
vn -0.0465 -0.9694 0.2409
vn 0.1328 -0.9880 0.0788
vn 0.0000 -0.9166 0.3997
vn -0.1467 -0.9872 0.0633
vn 0.0000 -0.2884 -0.9575
vn -0.9431 -0.2862 0.1693
vn 0.0000 -0.4222 0.9065
vn 0.9562 -0.2902 -0.0384
vn -0.0268 -0.3713 -0.9281
vn -0.8915 -0.4530 0.0000
vn -0.1652 -0.3612 0.9177
vn 0.9332 -0.3355 -0.1289
vn 0.5314 -0.8471 0.0000
vn 0.0000 -0.9254 -0.3789
vn -0.3561 -0.9301 0.0900
vn 0.3292 -0.9431 0.0469
vn -0.1708 -0.4353 0.8840
vn -0.8941 -0.4266 0.1363
vn 0.2746 -0.4151 -0.8673
vn -0.2378 -0.9706 0.0363
vn -0.0685 -0.9880 -0.1385
vn -0.3918 -0.9200 0.0000
vn -0.0555 -0.9873 0.1485
vn 0.9347 -0.3554 0.0000
vn 0.3190 -0.6298 0.7082
vn -0.7924 -0.6001 0.1094
vn 0.1357 -0.6403 -0.7561
vn 0.7468 -0.6611 0.0727
vn -0.1544 -0.8593 0.4876
vn -0.5289 -0.8299 -0.1777
vn 0.0000 -0.6370 -0.7709
vn 0.4257 -0.8851 0.1879
vn 0.0000 -0.5391 0.8422
vn -0.7946 -0.6019 0.0797
vn 0.0000 -0.9321 -0.3621
vn 0.8502 -0.5016 0.1597
vn 0.0000 -0.3163 0.9487
vn -0.8434 -0.4976 0.2028
vn 0.0000 -0.4222 -0.9065
vn 0.7619 -0.6049 -0.2315
vn 0.0000 -0.6349 0.7726
vn -0.7719 -0.6129 -0.1689
vn 0.0000 -0.4351 -0.9004
vn 0.1469 -0.9782 0.1469
vn -0.0429 -0.9655 -0.2568
vn -0.0255 -0.9978 0.0605
vn 0.7036 -0.7044 0.0933
vn 0.0252 -0.8775 -0.4789
vn -0.0585 -0.9952 0.0781
vn 0.0482 -0.6971 0.7154
vn -0.7445 -0.6618 -0.0876
vn 0.1018 -0.9897 -0.1003
vn -0.1509 -0.9619 -0.2280
vn 0.3821 -0.8957 -0.2275
vn 0.0000 -0.9647 -0.2632
vn -0.1540 -0.9780 0.1407
vn -0.2656 -0.9641 0.0000
vn 0.0991 -0.8174 0.5675
vn -0.3766 -0.9251 -0.0494
vn 0.4574 -0.8893 0.0015
vn -0.4302 -0.8950 -0.1179
vn -0.1096 -0.9833 -0.1449
vn 0.0000 -0.9991 -0.0427
vn 0.6190 -0.7281 0.2945
vn 0.0738 -0.7406 0.6679
vn -0.4873 -0.8591 -0.1563
vn 0.0000 -0.9743 0.2253
vn 0.0355 -0.5635 -0.8253
vn 0.1524 -0.9851 0.0801
vn 0.4231 -0.9057 0.0258
vn -0.5325 -0.8420 0.0866
vn 0.0413 -0.9991 0.0000
vn 0.0718 -0.9970 -0.0305
vn -0.5827 -0.8109 0.0545
vn -0.0694 -0.8651 -0.4968
vn 0.1854 -0.6472 0.7394
vn 0.1371 -0.6003 -0.7880
vn 0.0000 -0.6001 0.7999
vn -0.2375 -0.2886 -0.9275
vn 0.0000 -0.4061 0.9138
vn -0.3297 -0.9437 -0.0255
vn 0.3268 -0.9435 0.0541
vn -0.8940 -0.4028 0.1964
vn 0.9117 -0.4108 0.0000
vn -0.0591 -0.4762 -0.8774
vn -0.1841 -0.4609 0.8682
vn -0.3096 -0.9485 0.0677
vn -0.0686 -0.9892 -0.1293
vn -0.4473 -0.8933 0.0440
vn 0.0722 -0.9937 -0.0853
vn 0.0000 -0.9406 0.3395
vn -0.0620 -0.9404 -0.3343
vn 0.2647 -0.4288 0.8637
vn 0.0605 -0.4336 -0.8991
vn 0.5053 -0.8596 0.0759
vn -0.7529 -0.6393 -0.1562
vn 0.8143 -0.5645 0.1352
vn -0.3376 -0.9413 0.0000
vn 0.9084 -0.4008 0.1191
vn -0.9023 -0.3981 0.1657
vn 0.8752 -0.4409 -0.1991
vn -0.8860 -0.4463 -0.1262
vn 0.1512 -0.9760 0.1565
vn 0.2666 -0.9262 0.2666
vn 0.1496 -0.9791 -0.1380
vn 0.1719 -0.9661 -0.1926
vn -0.4940 -0.8370 0.2355
vn 0.0628 -0.9976 0.0284
vn 0.0273 -0.9988 -0.0395
vn 0.1123 -0.9913 -0.0686
vn 0.0781 -0.9781 -0.1927
vn 0.0284 -0.9956 0.0896
vn 0.0139 -0.9972 -0.0740
vn -0.0335 -0.9972 0.0673
vn -0.0586 -0.9982 -0.0077
vn -0.1844 -0.9748 0.1257
vn 0.6568 -0.7446 0.1194
vn 0.0345 -0.9259 -0.3763
vn 0.0000 -0.9393 -0.3432
vn 0.1166 -0.8286 0.5475
vn -0.4733 -0.8513 -0.2264
vn 0.1123 -0.8409 -0.5294
vn 0.0134 -0.9994 0.0307
vn 0.4748 -0.8529 -0.2172
vn -0.1075 -0.8308 0.5461
vn 0.1159 -0.8817 0.4574
vn -0.0755 -0.9935 0.0857
vn 0.6192 -0.7770 -0.1137
vn -0.3697 -0.9206 -0.1258
vn 0.2862 -0.7270 0.6242
vn -0.1443 -0.9833 -0.1104
vn 0.0444 -0.6987 0.7141
vn -0.0322 -0.9960 0.0830
vn 0.0250 -0.9152 0.4022
vn -0.0628 -0.7586 -0.6485
vn 0.4261 -0.9041 0.0329
vn 0.2250 -0.9744 0.0000
vn -0.0835 -0.5289 -0.8445
vn 0.1151 -0.9921 0.0490
vn -0.6639 -0.7370 0.1264
usemtl None
s off
f 9//1 43//1 49//1
f 10//2 6//2 5//2
f 16//3 43//3 42//3
f 11//4 49//4 43//4
f 12//5 48//5 49//5
f 48//6 16//6 42//6
f 15//2 11//2 16//2
f 41//7 17//7 42//7
f 17//8 48//8 42//8
f 18//9 47//9 48//9
f 47//10 22//10 41//10
f 22//2 18//2 17//2
f 28//11 41//11 13//11
f 41//12 24//12 47//12
f 24//13 14//13 47//13
f 14//14 28//14 13//14
f 27//2 23//2 28//2
f 49//15 29//15 50//15
f 29//16 56//16 50//16
f 30//17 55//17 56//17
f 55//18 34//18 49//18
f 33//2 29//2 34//2
f 55//19 35//19 56//19
f 35//20 62//20 56//20
f 62//21 39//21 61//21
f 61//22 40//22 55//22
f 40//2 36//2 35//2
f 58//23 8//23 46//23
f 53//24 7//24 8//24
f 7//25 57//25 52//25
f 57//26 46//26 52//26
f 58//2 54//2 53//2
f 13//27 116//27 64//27
f 51//28 99//28 100//28
f 37//29 107//29 105//29
f 62//30 113//30 103//30
f 50//31 9//31 49//31
f 5//32 50//32 44//32
f 43//33 5//33 44//33
f 3//2 1//2 4//2
f 3//34 44//34 50//34
f 51//35 3//35 50//35
f 45//36 2//36 51//36
f 4//37 45//37 44//37
f 66//2 68//2 65//2
f 51//38 65//38 45//38
f 67//39 51//39 52//39
f 68//40 52//40 46//40
f 45//41 68//41 46//41
f 70//2 72//2 69//2
f 43//42 69//42 37//42
f 44//43 70//43 43//43
f 38//44 71//44 44//44
f 69//45 38//45 37//45
f 74//2 76//2 73//2
f 37//46 73//46 31//46
f 75//47 37//47 38//47
f 32//48 75//48 38//48
f 73//49 32//49 31//49
f 77//2 79//2 80//2
f 31//50 77//50 20//50
f 32//51 78//51 31//51
f 80//52 32//52 19//52
f 20//53 80//53 19//53
f 81//2 83//2 84//2
f 82//54 61//54 25//54
f 26//55 82//55 25//55
f 62//56 83//56 26//56
f 61//57 84//57 62//57
f 106//58 94//58 85//58
f 87//2 103//2 112//2
f 101//59 102//59 97//59
f 91//60 107//60 90//60
f 38//61 108//61 32//61
f 52//62 100//62 87//62
f 20//63 116//63 111//63
f 46//64 86//64 85//64
f 55//65 101//65 61//65
f 52//66 88//66 7//66
f 41//67 89//67 13//67
f 56//68 103//68 104//68
f 19//69 109//69 59//69
f 42//70 90//70 41//70
f 8//71 109//71 86//71
f 42//72 92//72 91//72
f 31//73 111//73 107//73
f 32//74 110//74 19//74
f 37//75 92//75 43//75
f 45//76 93//76 44//76
f 26//77 112//77 113//77
f 38//78 93//78 106//78
f 45//79 85//79 94//79
f 55//80 98//80 102//80
f 25//81 114//81 60//81
f 47//82 95//82 96//82
f 56//83 99//83 50//83
f 14//84 114//84 95//84
f 48//85 96//85 97//85
f 7//86 112//86 63//86
f 48//87 98//87 49//87
f 61//88 115//88 25//88
f 9//1 10//1 43//1
f 10//2 9//2 6//2
f 16//89 11//89 43//89
f 11//4 12//4 49//4
f 12//90 15//90 48//90
f 48//6 15//6 16//6
f 15//2 12//2 11//2
f 41//91 22//91 17//91
f 17//8 18//8 48//8
f 18//92 21//92 47//92
f 47//10 21//10 22//10
f 22//2 21//2 18//2
f 28//93 23//93 41//93
f 41//12 23//12 24//12
f 24//94 27//94 14//94
f 14//14 27//14 28//14
f 27//2 24//2 23//2
f 49//15 34//15 29//15
f 29//95 30//95 56//95
f 30//17 33//17 55//17
f 55//96 33//96 34//96
f 33//2 30//2 29//2
f 55//19 40//19 35//19
f 35//97 36//97 62//97
f 62//21 36//21 39//21
f 61//98 39//98 40//98
f 40//2 39//2 36//2
f 58//99 53//99 8//99
f 53//24 54//24 7//24
f 7//100 54//100 57//100
f 57//26 58//26 46//26
f 58//2 57//2 54//2
f 13//101 89//101 116//101
f 51//102 50//102 99//102
f 37//103 31//103 107//103
f 62//104 26//104 113//104
f 50//31 6//31 9//31
f 5//32 6//32 50//32
f 43//33 10//33 5//33
f 3//2 2//2 1//2
f 3//34 4//34 44//34
f 51//105 2//105 3//105
f 45//36 1//36 2//36
f 4//106 1//106 45//106
f 66//2 67//2 68//2
f 51//38 66//38 65//38
f 67//107 66//107 51//107
f 68//40 67//40 52//40
f 45//108 65//108 68//108
f 70//2 71//2 72//2
f 43//109 70//109 69//109
f 44//43 71//43 70//43
f 38//110 72//110 71//110
f 69//45 72//45 38//45
f 74//2 75//2 76//2
f 37//111 74//111 73//111
f 75//47 74//47 37//47
f 32//112 76//112 75//112
f 73//49 76//49 32//49
f 77//2 78//2 79//2
f 31//113 78//113 77//113
f 32//51 79//51 78//51
f 80//114 79//114 32//114
f 20//53 77//53 80//53
f 81//2 82//2 83//2
f 82//115 81//115 61//115
f 26//55 83//55 82//55
f 62//116 84//116 83//116
f 61//57 81//57 84//57
f 85//2 86//2 109//2
f 109//2 110//2 108//2
f 108//117 106//117 85//117
f 93//118 94//118 106//118
f 85//2 109//2 108//2
f 87//119 100//119 104//119
f 104//120 103//120 87//120
f 100//2 99//2 104//2
f 112//2 88//2 87//2
f 103//2 113//2 112//2
f 97//121 96//121 114//121
f 95//122 114//122 96//122
f 115//123 101//123 114//123
f 102//124 98//124 97//124
f 97//125 114//125 101//125
f 116//126 89//126 90//126
f 91//127 92//127 105//127
f 116//128 90//128 107//128
f 107//129 111//129 116//129
f 91//130 105//130 107//130
f 38//131 106//131 108//131
f 52//132 51//132 100//132
f 20//133 64//133 116//133
f 46//134 8//134 86//134
f 55//135 102//135 101//135
f 52//136 87//136 88//136
f 41//137 90//137 89//137
f 56//138 62//138 103//138
f 19//69 110//69 109//69
f 42//139 91//139 90//139
f 8//71 59//71 109//71
f 42//140 43//140 92//140
f 31//141 20//141 111//141
f 32//142 108//142 110//142
f 37//143 105//143 92//143
f 45//144 94//144 93//144
f 26//77 63//77 112//77
f 38//145 44//145 93//145
f 45//146 46//146 85//146
f 55//147 49//147 98//147
f 25//148 115//148 114//148
f 47//149 14//149 95//149
f 56//150 104//150 99//150
f 14//151 60//151 114//151
f 48//152 47//152 96//152
f 7//86 88//86 112//86
f 48//153 97//153 98//153
f 61//154 101//154 115//154
