# Blender v2.79 (sub 0) OBJ File: 'props.blend'
# www.blender.org
mtllib roof_v2.mtl
o roof_v2_Cube.003
v -0.399173 2.052789 -0.113090
v -0.399173 2.052789 0.108163
v -0.177920 2.052789 0.108163
v -0.216805 2.052789 -0.146914
v -0.153073 1.976299 -0.140754
v -0.114188 1.976299 0.114323
v -1.000000 2.000000 0.142857
v -1.000000 2.000000 -0.142857
v 0.135721 1.976299 0.162602
v 0.068399 1.976299 -0.070634
v 0.135692 2.026087 -0.068170
v 0.203014 2.026087 0.165066
v 1.000000 2.000000 -0.166285
v 1.000000 2.000000 0.142857
v 0.395612 2.026087 0.116787
v 0.395612 2.026087 -0.104467
v 0.458200 1.988260 -0.107823
v 0.458200 1.988260 0.113431
v -0.195336 2.000000 -1.000000
v 0.227748 2.000000 -1.000000
v 0.643738 1.988260 0.113431
v 0.679454 1.988260 -0.069322
v 0.743915 1.930806 -0.070644
v 0.708199 1.930806 0.112110
v 0.207847 2.000000 1.000000
v -0.142857 2.000000 1.000000
v 0.965168 1.930806 0.112110
v 0.965168 1.930806 -0.127286
v -0.109785 2.052789 0.178604
v -0.126886 2.052789 0.399858
v 0.190289 2.027482 -0.714286
v -0.142857 2.027482 -0.714286
v 0.111468 2.052789 0.399858
v 0.140124 2.052789 0.226883
v -0.126678 1.958288 0.460802
v -0.078073 1.958288 0.682055
v 0.142857 2.065310 -0.428571
v -0.142857 2.065310 -0.428571
v 0.111676 1.958288 0.682055
v 0.111676 1.958288 0.460802
v 0.714286 2.027482 -0.093140
v 0.428571 2.065310 -0.142857
v 0.092926 2.045494 -0.095986
v -0.193071 2.045494 -0.186535
v -0.428571 2.065310 -0.142857
v -0.714286 2.027482 -0.162090
v 0.668164 2.027482 0.142857
v 0.428571 2.065310 0.142857
v 0.179861 2.045494 0.205202
v -0.142857 2.045494 0.142857
v -0.428571 2.065310 0.142857
v -0.662283 2.027482 0.214475
v -0.964837 1.930806 -0.107672
v -0.964837 1.930806 0.113581
v 0.142857 2.065310 0.428571
v -0.164940 2.065310 0.428571
v -0.703313 1.930806 0.169041
v -0.743583 1.930806 -0.122566
v -1.000000 2.000000 -1.000000
v 1.000000 2.000000 1.000000
v 0.142857 2.027482 0.714286
v -0.102173 2.027482 0.714286
v -1.000000 2.000000 1.000000
v 1.000000 2.000000 -1.000000
v -0.457869 1.988260 -0.107672
v -0.457869 1.988260 0.113581
v -0.638852 1.988260 0.169041
v -0.679122 1.988260 -0.122566
v 0.104978 2.026087 -0.396161
v 0.066312 2.026087 -0.138611
v -0.155160 2.026087 -0.208731
v -0.116275 2.026087 -0.396161
v 0.150033 2.014962 -0.682055
v 0.113302 2.014962 -0.460802
v -0.107951 2.014962 -0.460802
v -0.107951 2.014962 -0.682055
v 0.180868 1.930806 -0.967770
v 0.151861 1.930806 -0.746516
v -0.106123 1.930806 -0.746516
v -0.146762 1.930806 -0.967770
v 0.116587 1.960778 0.746516
v 0.166915 1.960778 0.967770
v -0.104666 1.960778 0.967770
v -0.073162 1.960778 0.746516
v -0.672983 1.974918 -0.216088
v -0.908939 1.974918 -0.200204
v -0.626264 2.003922 0.259539
v -0.905167 2.003922 0.200394
v 0.908497 2.026281 -0.216590
v 0.672541 2.024985 -0.156183
v 0.436585 2.028521 -0.197242
v 0.159393 2.021785 -0.158534
v -0.242539 2.058340 -0.236275
v -0.437027 2.012745 -0.200204
v 0.907920 1.958612 0.200192
v 0.633875 1.941349 0.200192
v 0.436007 2.071320 0.247053
v 0.230611 2.047729 0.251679
v -0.197298 2.041750 0.200394
v -0.433254 2.041750 0.200394
v 0.200051 1.968726 0.672105
v 0.200051 2.031492 0.436148
v -0.163699 2.003922 0.672307
v -0.215535 2.041750 0.436350
v 0.200628 2.042744 -0.433199
v -0.201070 2.012745 -0.436161
v 0.239800 2.004917 -0.669155
v -0.201070 1.974918 -0.672117
v -0.908939 1.974918 -0.908073
v -0.244410 1.974918 -0.908073
v 0.270735 2.004917 -0.905111
v -0.905167 2.003922 0.908263
v -0.197298 2.003922 0.908263
v 0.907920 1.978738 0.908061
v 0.253723 1.960851 0.908061
v 0.944722 1.965327 -0.905111
vn 0.8787 -0.4044 -0.2536
vn 0.0000 -1.0000 0.0000
vn -0.0666 -0.7519 -0.6559
vn -0.4830 -0.8645 0.1394
vn 0.1926 -0.7486 0.6344
vn 0.7656 -0.6433 0.0000
vn 0.1200 -0.4526 -0.8836
vn -0.9334 -0.3589 0.0000
vn -0.0403 -0.4527 0.8908
vn 0.7832 -0.6026 0.1531
vn -0.2509 -0.3296 -0.9102
vn -0.9277 -0.3265 -0.1813
vn -0.0162 -0.3480 0.9373
vn 0.8932 -0.4496 0.0000
vn -0.0465 -0.9694 0.2409
vn -0.0765 -0.9965 0.0330
vn 0.0000 -0.9166 0.3997
vn 0.0671 -0.9959 0.0609
vn 0.0000 -0.2884 -0.9575
vn -0.9274 -0.3282 0.1793
vn 0.0000 -0.4222 0.9065
vn 0.9424 -0.3335 -0.0249
vn -0.0390 -0.4115 -0.9106
vn -0.8915 -0.4530 0.0000
vn -0.1726 -0.3994 0.9004
vn 0.9332 -0.3355 -0.1289
vn 0.0696 -0.9967 0.0416
vn -0.0368 -0.9679 -0.2485
vn -0.4075 -0.9109 0.0645
vn 0.1938 -0.9807 -0.0241
vn -0.1708 -0.4353 0.8840
vn -0.8941 -0.4266 0.1363
vn 0.2746 -0.4151 -0.8673
vn -0.2378 -0.9706 0.0363
vn -0.0389 -0.9962 0.0782
vn -0.3918 -0.9200 0.0000
vn -0.0602 -0.9957 -0.0701
vn 0.9347 -0.3554 0.0000
vn 0.2925 -0.5273 0.7977
vn -0.7924 -0.6001 0.1094
vn 0.0964 -0.5346 -0.8396
vn 0.6643 -0.7437 0.0748
vn -0.1544 -0.8593 0.4876
vn -0.6483 -0.7425 -0.1687
vn 0.0000 -0.6370 -0.7709
vn 0.6601 -0.7330 0.1643
vn 0.0000 -0.5391 0.8422
vn -0.6682 -0.7420 0.0554
vn 0.0000 -0.9321 -0.3621
vn 0.8805 -0.4529 0.1400
vn 0.0000 -0.3163 0.9487
vn -0.8740 -0.4495 0.1849
vn 0.0000 -0.4222 -0.9065
vn 0.8245 -0.5231 -0.2159
vn 0.0000 -0.6349 0.7726
vn -0.8351 -0.5298 -0.1476
vn 0.0000 -0.4351 -0.9004
vn 0.0382 -0.9985 0.0388
vn 0.0250 -0.9993 -0.0262
vn -0.0457 -0.9978 -0.0475
vn -0.0333 -0.9981 0.0521
vn 0.6834 -0.7224 0.1048
vn 0.0303 -0.9048 -0.4248
vn -0.0270 -0.9873 -0.1566
vn 0.0832 -0.7683 0.6347
vn -0.6485 -0.7474 -0.1441
vn 0.1098 -0.9410 -0.3202
vn -0.0791 -0.9902 -0.1148
vn 0.4345 -0.8728 -0.2220
vn 0.0000 -0.9647 -0.2632
vn -0.1342 -0.9275 0.3489
vn -0.2656 -0.9641 0.0000
vn 0.1082 -0.8531 0.5103
vn -0.2201 -0.9752 0.0225
vn 0.5395 -0.8402 -0.0548
vn -0.4035 -0.9069 -0.1215
vn 0.1111 -0.9499 0.2922
vn 0.0000 -0.9991 -0.0427
vn 0.2891 -0.9503 0.1154
vn 0.0573 -0.7174 0.6943
vn -0.2643 -0.9638 -0.0353
vn 0.0118 -0.9508 0.3094
vn -0.0112 -0.6625 -0.7490
vn 0.2850 -0.9567 0.0584
vn 0.3200 -0.9473 0.0122
vn -0.3603 -0.8104 -0.4619
vn 0.0413 -0.9991 0.0000
vn 0.0976 -0.9951 0.0168
vn -0.6227 -0.7774 0.0890
usemtl None
s off
f 49//1 9//1 10//1 43//1
f 10//2 9//2 6//2 5//2
f 42//3 16//3 11//3 43//3
f 43//4 11//4 12//4 49//4
f 49//5 12//5 15//5 48//5
f 48//6 15//6 16//6 42//6
f 16//2 15//2 12//2 11//2
f 41//7 22//7 17//7 42//7
f 42//8 17//8 18//8 48//8
f 48//9 18//9 21//9 47//9
f 47//10 21//10 22//10 41//10
f 22//2 21//2 18//2 17//2
f 13//11 28//11 23//11 41//11
f 41//12 23//12 24//12 47//12
f 47//13 24//13 27//13 14//13
f 14//14 27//14 28//14 13//14
f 28//2 27//2 24//2 23//2
f 49//15 34//15 29//15 50//15
f 50//16 29//16 30//16 56//16
f 56//17 30//17 33//17 55//17
f 55//18 33//18 34//18 49//18
f 34//2 33//2 30//2 29//2
f 55//19 40//19 35//19 56//19
f 56//20 35//20 36//20 62//20
f 62//21 36//21 39//21 61//21
f 61//22 39//22 40//22 55//22
f 40//2 39//2 36//2 35//2
f 46//23 58//23 53//23 8//23
f 8//24 53//24 54//24 7//24
f 7//25 54//25 57//25 52//25
f 52//26 57//26 58//26 46//26
f 58//2 57//2 54//2 53//2
f 64//27 13//27 89//27 116//27
f 51//28 50//28 99//28 100//28
f 37//29 31//29 107//29 105//29
f 62//30 26//30 113//30 103//30
f 50//31 6//31 9//31 49//31
f 44//32 5//32 6//32 50//32
f 43//33 10//33 5//33 44//33
f 4//2 3//2 2//2 1//2
f 50//34 3//34 4//34 44//34
f 51//35 2//35 3//35 50//35
f 45//36 1//36 2//36 51//36
f 44//37 4//37 1//37 45//37
f 65//2 66//2 67//2 68//2
f 51//38 66//38 65//38 45//38
f 52//39 67//39 66//39 51//39
f 46//40 68//40 67//40 52//40
f 45//41 65//41 68//41 46//41
f 69//2 70//2 71//2 72//2
f 43//42 70//42 69//42 37//42
f 44//43 71//43 70//43 43//43
f 38//44 72//44 71//44 44//44
f 37//45 69//45 72//45 38//45
f 73//2 74//2 75//2 76//2
f 37//46 74//46 73//46 31//46
f 38//47 75//47 74//47 37//47
f 32//48 76//48 75//48 38//48
f 31//49 73//49 76//49 32//49
f 77//2 78//2 79//2 80//2
f 31//50 78//50 77//50 20//50
f 32//51 79//51 78//51 31//51
f 19//52 80//52 79//52 32//52
f 20//53 77//53 80//53 19//53
f 81//2 82//2 83//2 84//2
f 25//54 82//54 81//54 61//54
f 26//55 83//55 82//55 25//55
f 62//56 84//56 83//56 26//56
f 61//57 81//57 84//57 62//57
f 86//58 109//58 110//58 108//58 106//58 93//58 94//58 85//58
f 87//59 100//59 99//59 104//59 103//59 113//59 112//59 88//59
f 96//60 95//60 114//60 115//60 101//60 102//60 98//60 97//60
f 89//61 90//61 91//61 92//61 105//61 107//61 111//61 116//61
f 32//62 38//62 106//62 108//62
f 52//63 51//63 100//63 87//63
f 20//64 64//64 116//64 111//64
f 46//65 8//65 86//65 85//65
f 61//66 55//66 102//66 101//66
f 7//67 52//67 87//67 88//67
f 13//68 41//68 90//68 89//68
f 56//69 62//69 103//69 104//69
f 59//70 19//70 110//70 109//70
f 41//71 42//71 91//71 90//71
f 8//72 59//72 109//72 86//72
f 42//73 43//73 92//73 91//73
f 31//74 20//74 111//74 107//74
f 19//75 32//75 108//75 110//75
f 43//76 37//76 105//76 92//76
f 44//77 45//77 94//77 93//77
f 26//78 63//78 112//78 113//78
f 38//79 44//79 93//79 106//79
f 45//80 46//80 85//80 94//80
f 55//81 49//81 98//81 102//81
f 60//82 25//82 115//82 114//82
f 47//83 14//83 95//83 96//83
f 50//84 56//84 104//84 99//84
f 14//85 60//85 114//85 95//85
f 48//86 47//86 96//86 97//86
f 63//87 7//87 88//87 112//87
f 49//88 48//88 97//88 98//88
f 25//89 61//89 101//89 115//89
